<svg xmlns="http://www.w3.org/2000/svg" viewBox="0 0 1280 640" fill="none">
  <title>react-is-online-context — Reliable online / offline detection for React</title>
  <defs>
    <radialGradient id="g" cx="80%" cy="20%" r="80%">
      <stop offset="0%" stop-color="#14b8a6" stop-opacity="0.20"/>
      <stop offset="60%" stop-color="#0a0510" stop-opacity="0"/>
    </radialGradient>
    <pattern id="grid" width="40" height="40" patternUnits="userSpaceOnUse">
      <path d="M 40 0 L 0 0 0 40" fill="none" stroke="#ffffff" stroke-opacity="0.04" stroke-width="1"/>
    </pattern>
  </defs>
  <rect width="1280" height="640" fill="#0a0510"/>
  <rect width="1280" height="640" fill="url(#grid)"/>
  <rect width="1280" height="640" fill="url(#g)"/>

  <!-- Large decorative mark on right (low opacity) -->
  <g transform="translate(820, 120) scale(1.7)" opacity="0.10">
    <rect x="0" y="0" width="256" height="256" rx="56" fill="#14b8a6"/>
    
			<g fill="none" stroke="#ffffff" stroke-width="18" stroke-linecap="round">
				<path d="M104 156 Q128 132 152 156"/>
				<path d="M84 132 Q128 88 172 132"/>
				<path d="M64 108 Q128 44 192 108"/>
			</g>
			<circle cx="128" cy="186" r="11" fill="#ffffff"/>
  </g>

  <!-- Small primary mark, top-left -->
  <g transform="translate(96, 96) scale(0.47)">
    <rect x="0" y="0" width="256" height="256" rx="56" fill="#14b8a6"/>
    
			<g fill="none" stroke="#ffffff" stroke-width="18" stroke-linecap="round">
				<path d="M104 156 Q128 132 152 156"/>
				<path d="M84 132 Q128 88 172 132"/>
				<path d="M64 108 Q128 44 192 108"/>
			</g>
			<circle cx="128" cy="186" r="11" fill="#ffffff"/>
  </g>

  <!-- Package-type pill, top-right -->
  <g transform="translate(965, 80)">
    <rect x="0" y="0" width="219" height="36" rx="18" fill="#14b8a6" fill-opacity="0.16" stroke="#14b8a6" stroke-opacity="0.50" stroke-width="1"/>
    <g transform="translate(18, 24.5)"><path fill="#14b8a6" d="M5.13 0L1.25 0L1.25-16.01L5.41-16.01L9.88-8.78Q10.42-7.88 10.92-6.92Q11.43-5.95 11.93-4.64L11.93-4.64Q11.85-5.84 11.78-7.10Q11.71-8.36 11.71-9.20L11.71-9.20L11.71-16.01L15.60-16.01L15.60 0L11.42 0L7.33-6.63Q6.85-7.40 6.47-8.10Q6.09-8.80 5.72-9.56Q5.35-10.32 4.90-11.28L4.90-11.28Q5.00-9.86 5.06-8.62Q5.13-7.38 5.13-6.63L5.13-6.63L5.13 0ZM23.20 0L19.41 0L19.41-16.01L25.96-16.01Q27.77-16.01 29.08-15.31Q30.39-14.61 31.09-13.36Q31.80-12.12 31.80-10.47L31.80-10.47Q31.80-8.82 31.08-7.59Q30.36-6.36 29.02-5.68Q27.69-5.00 25.86-5.00L25.86-5.00L23.20-5.00L23.20 0ZM23.20-12.93L23.20-7.99L25.17-7.99Q26.50-7.99 27.18-8.67Q27.86-9.36 27.86-10.47L27.86-10.47Q27.86-11.60 27.18-12.27Q26.49-12.93 25.16-12.93L25.16-12.93L23.20-12.93ZM38.87 0L35.07 0L35.07-16.01L40.98-16.01L43.02-9.78Q43.18-9.23 43.39-8.35Q43.60-7.47 43.81-6.45Q44.03-5.42 44.22-4.47L44.22-4.47Q44.41-5.42 44.62-6.44Q44.82-7.46 45.03-8.34Q45.24-9.23 45.40-9.78L45.40-9.78L47.41-16.01L53.33-16.01L53.33 0L49.52 0L49.52-6.90Q49.52-7.51 49.55-8.50Q49.57-9.50 49.60-10.66Q49.64-11.82 49.66-12.89L49.66-12.89Q49.39-11.75 49.09-10.60Q48.80-9.45 48.53-8.48Q48.26-7.51 48.07-6.90L48.07-6.90L45.79 0L42.62 0L40.31-6.90Q40.13-7.49 39.86-8.42Q39.59-9.36 39.30-10.47Q39.00-11.58 38.73-12.71L38.73-12.71Q38.76-11.66 38.79-10.54Q38.82-9.42 38.85-8.46Q38.87-7.50 38.87-6.90L38.87-6.90L38.87 0ZM67.07 0L63.28 0L63.28-16.01L69.83-16.01Q71.63-16.01 72.95-15.31Q74.26-14.61 74.96-13.36Q75.66-12.12 75.66-10.47L75.66-10.47Q75.66-8.82 74.94-7.59Q74.22-6.36 72.89-5.68Q71.56-5.00 69.72-5.00L69.72-5.00L67.07-5.00L67.07 0ZM67.07-12.93L67.07-7.99L69.03-7.99Q70.37-7.99 71.05-8.67Q71.73-9.36 71.73-10.47L71.73-10.47Q71.73-11.60 71.04-12.27Q70.36-12.93 69.02-12.93L69.02-12.93L67.07-12.93ZM82.41 0L78.20 0L83.54-16.01L88.62-16.01L94.12 0L89.86 0L88.78-3.41L83.45-3.41L82.41 0ZM84.56-6.99L84.34-6.31L87.85-6.31L87.64-6.99Q87.22-8.37 86.82-9.87Q86.43-11.38 86.04-12.99L86.04-12.99Q85.67-11.37 85.31-9.86Q84.95-8.36 84.56-6.99L84.56-6.99ZM104.40 0.21L104.40 0.21Q102.24 0.21 100.52-0.74Q98.81-1.70 97.82-3.53Q96.82-5.36 96.82-7.99L96.82-7.99Q96.82-10.63 97.83-12.47Q98.83-14.31 100.55-15.26Q102.27-16.22 104.40-16.22L104.40-16.22Q106.30-16.22 107.81-15.53Q109.33-14.85 110.28-13.54Q111.24-12.22 111.46-10.36L111.46-10.36L107.63-10.36Q107.45-11.53 106.61-12.21Q105.78-12.89 104.49-12.89L104.49-12.89Q102.73-12.89 101.72-11.61Q100.70-10.32 100.70-7.99L100.70-7.99Q100.70-5.59 101.72-4.35Q102.74-3.12 104.47-3.12L104.47-3.12Q105.76-3.12 106.60-3.80Q107.44-4.48 107.64-5.65L107.64-5.65L111.47-5.65Q111.37-4.58 110.86-3.53Q110.35-2.49 109.46-1.64Q108.56-0.79 107.30-0.29Q106.03 0.21 104.40 0.21ZM118.66 0L114.87 0L114.87-16.01L118.66-16.01L118.66-12.07L118.60-8.21Q119.07-9.02 119.63-9.82Q120.19-10.62 120.99-11.63L120.99-11.63L124.56-16.01L129.11-16.01L123.31-9.10L129.34 0L124.88 0L120.70-6.61L118.66-4.30L118.66 0ZM135.90 0L131.69 0L137.03-16.01L142.11-16.01L147.61 0L143.35 0L142.27-3.41L136.94-3.41L135.90 0ZM138.05-6.99L137.83-6.31L141.35-6.31L141.13-6.99Q140.71-8.37 140.31-9.87Q139.92-11.38 139.53-12.99L139.53-12.99Q139.17-11.37 138.81-9.86Q138.45-8.36 138.05-6.99L138.05-6.99ZM158.00 0.21L158.00 0.21Q155.71 0.21 153.98-0.78Q152.25-1.77 151.28-3.61Q150.31-5.45 150.31-7.97L150.31-7.97Q150.31-10.59 151.34-12.43Q152.36-14.28 154.09-15.25Q155.81-16.22 157.95-16.22L157.95-16.22Q159.79-16.22 161.28-15.53Q162.78-14.83 163.73-13.60Q164.68-12.38 164.87-10.79L164.87-10.79L161.04-10.79Q160.77-11.78 159.99-12.34Q159.21-12.89 158.02-12.89L158.02-12.89Q156.27-12.89 155.23-11.62Q154.19-10.34 154.19-8.02L154.19-8.02Q154.19-5.68 155.20-4.40Q156.21-3.12 158.03-3.12L158.03-3.12Q159.62-3.12 160.48-3.88Q161.35-4.64 161.38-5.94L161.38-5.94L158.18-5.94L158.18-8.72L165.04-8.72L165.04-6.62Q165.04-4.48 164.13-2.95Q163.23-1.42 161.64-0.60Q160.05 0.21 158.00 0.21ZM179.65 0L168.55 0L168.55-16.01L179.66-16.01L179.66-12.91L172.35-12.91L172.35-9.60L179.08-9.60L179.08-6.57L172.35-6.57L172.35-3.09L179.65-3.09L179.65 0Z"/></g>
  </g>

  <!-- Wordmark + tagline -->
  <path fill="#fafafa" d="M120.84 360L105.17 360L105.17 309.78L120.39 309.78L120.39 318.94L120.93 318.94Q122.28 314 125.40 311.57Q128.53 309.15 132.66 309.15L132.66 309.15Q134.95 309.15 137.11 309.69L137.11 309.69L137.11 323.34Q135.98 322.94 134.16 322.74Q132.34 322.54 130.91 322.54L130.91 322.54Q126.55 322.54 123.70 325.32Q120.84 328.11 120.84 332.60L120.84 332.60L120.84 360ZM162.60 360.94L162.60 360.94Q150.79 360.94 144.03 354.05Q137.27 347.15 137.27 335.07L137.27 335.07Q137.27 327.34 140.30 321.50Q143.33 315.66 148.90 312.41Q154.47 309.15 162.02 309.15L162.02 309.15Q169.07 309.15 174.53 312.09Q179.99 315.03 183.11 320.76Q186.23 326.49 186.23 334.75L186.23 334.75L186.23 338.71L152.68 338.71Q152.90 344.14 155.66 346.86Q158.43 349.58 162.87 349.58L162.87 349.58Q166.02 349.58 168.31 348.25Q170.60 346.93 171.54 344.41L171.54 344.41L185.51 346.70Q183.63 353.22 177.67 357.08Q171.72 360.94 162.60 360.94ZM152.77 329.59L152.77 329.59L171.36 329.59Q170.91 325.32 168.58 322.92Q166.24 320.51 162.15 320.51L162.15 320.51Q158.02 320.51 155.62 322.96Q153.21 325.41 152.77 329.59ZM203.91 360.90L203.91 360.90Q196.68 360.90 192.03 357.21Q187.38 353.53 187.38 346.07L187.38 346.07Q187.38 340.50 189.94 337.22Q192.50 333.95 196.75 332.37Q200.99 330.80 206.07 330.35L206.07 330.35Q212.45 329.81 215.21 329.03Q217.97 328.24 217.97 325.90L217.97 325.90L217.97 325.72Q217.97 323.12 216.15 321.70Q214.34 320.29 211.15 320.29L211.15 320.29Q207.87 320.29 205.76 321.68Q203.64 323.07 203.01 325.46L203.01 325.46L188.82 323.61Q190.30 317.19 196.07 313.17Q201.85 309.15 211.28 309.15L211.28 309.15Q217.52 309.15 222.58 311.08Q227.63 313.01 230.62 316.76Q233.61 320.51 233.61 325.90L233.61 325.90L233.61 360L218.87 360L218.87 352.95L218.47 352.95Q214.29 360.90 203.91 360.90ZM208.68 350.52L208.68 350.52Q212.63 350.52 215.37 348.19Q218.11 345.85 218.11 342.12L218.11 342.12L218.11 337.31Q216.76 338.03 214.20 338.53Q211.64 339.02 209.44 339.38L209.44 339.38Q202.21 340.46 202.21 345.36L202.21 345.36Q202.21 347.87 204.03 349.20Q205.84 350.52 208.68 350.52ZM262.70 360.94L262.70 360.94Q254.84 360.94 249.18 357.69Q243.52 354.43 240.48 348.61Q237.45 342.79 237.45 335.07L237.45 335.07Q237.45 327.34 240.48 321.50Q243.52 315.66 249.18 312.41Q254.84 309.15 262.70 309.15L262.70 309.15Q272.31 309.15 278.49 313.96Q284.66 318.76 285.83 326.98L285.83 326.98L271.37 329.41Q270.60 325.46 268.47 323.30Q266.34 321.14 262.88 321.14L262.88 321.14Q258.39 321.14 255.91 324.80Q253.44 328.46 253.44 334.98L253.44 334.98Q253.44 341.45 255.91 345.20Q258.39 348.95 262.88 348.95L262.88 348.95Q266.34 348.95 268.52 346.70Q270.69 344.46 271.41 340.41L271.41 340.41L285.88 342.75Q284.71 351.20 278.56 356.07Q272.40 360.94 262.70 360.94ZM307.60 309.78L316.63 309.78L316.63 321.41L307.60 321.41L307.60 344.64Q307.60 348.54 311.60 348.54L311.60 348.54Q312.41 348.54 313.87 348.34Q315.33 348.14 315.96 348.01L315.96 348.01L317.98 359.42Q315.33 360.18 312.86 360.45Q310.39 360.72 308.19 360.72L308.19 360.72Q300.19 360.72 296.06 356.97Q291.92 353.22 291.92 346.03L291.92 346.03L291.92 321.41L285.28 321.41L285.28 309.78L291.92 309.78L291.92 297.83L307.60 297.83L307.60 309.78ZM321.15 326.85L352.01 326.85L352.01 338.93L321.15 338.93L321.15 326.85ZM374.50 360L358.82 360L358.82 309.78L374.50 309.78L374.50 360ZM366.64 303.89L366.64 303.89Q363.31 303.89 360.93 301.69Q358.55 299.49 358.55 296.35L358.55 296.35Q358.55 293.20 360.93 291Q363.31 288.80 366.64 288.80L366.64 288.80Q370.01 288.80 372.39 291Q374.77 293.20 374.77 296.35L374.77 296.35Q374.77 299.49 372.39 301.69Q370.01 303.89 366.64 303.89ZM401.43 360.94L401.43 360.94Q391.78 360.94 385.55 356.88Q379.33 352.81 378.03 345.63L378.03 345.63L392.59 343.33Q393.53 346.61 395.77 348.28Q398.02 349.94 402.02 349.94L402.02 349.94Q405.30 349.94 407.18 348.79Q409.07 347.65 409.07 345.76L409.07 345.76Q409.07 342.48 402.92 341.27L402.92 341.27L394.16 339.56Q379.29 336.73 379.29 325.10L379.29 325.10Q379.29 317.59 385.29 313.37Q391.28 309.15 401.39 309.15L401.39 309.15Q410.82 309.15 416.53 312.88Q422.23 316.61 423.54 323.07L423.54 323.07L409.70 325.28Q408.17 319.93 401.66 319.93L401.66 319.93Q398.83 319.93 396.88 321.08Q394.92 322.22 394.92 324.15L394.92 324.15Q394.92 325.68 396.13 326.83Q397.35 327.97 400.58 328.60L400.58 328.60L410.19 330.40Q424.97 333.18 424.97 343.96L424.97 343.96Q424.97 349.13 421.94 352.95Q418.91 356.77 413.61 358.85Q408.31 360.94 401.43 360.94ZM429.49 326.85L460.35 326.85L460.35 338.93L429.49 338.93L429.49 326.85ZM490.48 360.94L490.48 360.94Q482.62 360.94 476.96 357.69Q471.30 354.43 468.27 348.61Q465.23 342.79 465.23 335.07L465.23 335.07Q465.23 327.34 468.27 321.50Q471.30 315.66 476.96 312.41Q482.62 309.15 490.48 309.15L490.48 309.15Q498.34 309.15 503.98 312.41Q509.62 315.66 512.65 321.50Q515.68 327.34 515.68 335.07L515.68 335.07Q515.68 342.79 512.65 348.61Q509.62 354.43 503.98 357.69Q498.34 360.94 490.48 360.94ZM490.48 348.95L490.48 348.95Q494.97 348.95 497.35 345.11Q499.73 341.27 499.73 334.98L499.73 334.98Q499.73 328.69 497.35 324.92Q494.97 321.14 490.48 321.14L490.48 321.14Q485.99 321.14 483.61 324.92Q481.22 328.69 481.22 334.98L481.22 334.98Q481.22 341.27 483.61 345.11Q485.99 348.95 490.48 348.95ZM535.20 331.34L535.20 331.34L535.20 360L519.53 360L519.53 309.78L534.26 309.78L534.53 320.60Q536.51 315.39 540.32 312.27Q544.14 309.15 550.25 309.15L550.25 309.15Q558.11 309.15 562.87 314.31Q567.64 319.48 567.64 328.02L567.64 328.02L567.64 360L551.96 360L551.96 331.07Q551.96 326.85 549.80 324.44Q547.65 322.04 543.78 322.04L543.78 322.04Q539.96 322.04 537.58 324.49Q535.20 326.94 535.20 331.34ZM573.37 293.07L589.05 293.07L589.05 360L573.37 360L573.37 293.07ZM610.50 360L594.82 360L594.82 309.78L610.50 309.78L610.50 360ZM602.64 303.89L602.64 303.89Q599.32 303.89 596.93 301.69Q594.55 299.49 594.55 296.35L594.55 296.35Q594.55 293.20 596.93 291Q599.32 288.80 602.64 288.80L602.64 288.80Q606.01 288.80 608.39 291Q610.77 293.20 610.77 296.35L610.77 296.35Q610.77 299.49 608.39 301.69Q606.01 303.89 602.64 303.89ZM631.96 331.34L631.96 331.34L631.96 360L616.28 360L616.28 309.78L631.01 309.78L631.28 320.60Q633.26 315.39 637.08 312.27Q640.90 309.15 647.00 309.15L647.00 309.15Q654.87 309.15 659.63 314.31Q664.39 319.48 664.39 328.02L664.39 328.02L664.39 360L648.71 360L648.71 331.07Q648.71 326.85 646.56 324.44Q644.40 322.04 640.54 322.04L640.54 322.04Q636.72 322.04 634.34 324.49Q631.96 326.94 631.96 331.34ZM693.53 360.94L693.53 360.94Q681.71 360.94 674.95 354.05Q668.19 347.15 668.19 335.07L668.19 335.07Q668.19 327.34 671.22 321.50Q674.25 315.66 679.82 312.41Q685.39 309.15 692.94 309.15L692.94 309.15Q699.99 309.15 705.45 312.09Q710.91 315.03 714.03 320.76Q717.15 326.49 717.15 334.75L717.15 334.75L717.15 338.71L683.60 338.71Q683.82 344.14 686.59 346.86Q689.35 349.58 693.80 349.58L693.80 349.58Q696.94 349.58 699.23 348.25Q701.52 346.93 702.47 344.41L702.47 344.41L716.44 346.70Q714.55 353.22 708.60 357.08Q702.64 360.94 693.53 360.94ZM683.69 329.59L683.69 329.59L702.29 329.59Q701.84 325.32 699.50 322.92Q697.16 320.51 693.08 320.51L693.08 320.51Q688.94 320.51 686.54 322.96Q684.14 325.41 683.69 329.59ZM721.85 326.85L752.71 326.85L752.71 338.93L721.85 338.93L721.85 326.85ZM782.84 360.94L782.84 360.94Q774.98 360.94 769.32 357.69Q763.66 354.43 760.63 348.61Q757.59 342.79 757.59 335.07L757.59 335.07Q757.59 327.34 760.63 321.50Q763.66 315.66 769.32 312.41Q774.98 309.15 782.84 309.15L782.84 309.15Q792.45 309.15 798.63 313.96Q804.81 318.76 805.97 326.98L805.97 326.98L791.51 329.41Q790.75 325.46 788.61 323.30Q786.48 321.14 783.02 321.14L783.02 321.14Q778.53 321.14 776.06 324.80Q773.59 328.46 773.59 334.98L773.59 334.98Q773.59 341.45 776.06 345.20Q778.53 348.95 783.02 348.95L783.02 348.95Q786.48 348.95 788.66 346.70Q790.84 344.46 791.55 340.41L791.55 340.41L806.02 342.75Q804.85 351.20 798.70 356.07Q792.54 360.94 782.84 360.94ZM833.00 360.94L833.00 360.94Q825.14 360.94 819.48 357.69Q813.82 354.43 810.79 348.61Q807.75 342.79 807.75 335.07L807.75 335.07Q807.75 327.34 810.79 321.50Q813.82 315.66 819.48 312.41Q825.14 309.15 833.00 309.15L833.00 309.15Q840.86 309.15 846.50 312.41Q852.14 315.66 855.17 321.50Q858.20 327.34 858.20 335.07L858.20 335.07Q858.20 342.79 855.17 348.61Q852.14 354.43 846.50 357.69Q840.86 360.94 833.00 360.94ZM833.00 348.95L833.00 348.95Q837.49 348.95 839.87 345.11Q842.25 341.27 842.25 334.98L842.25 334.98Q842.25 328.69 839.87 324.92Q837.49 321.14 833.00 321.14L833.00 321.14Q828.51 321.14 826.13 324.92Q823.75 328.69 823.75 334.98L823.75 334.98Q823.75 341.27 826.13 345.11Q828.51 348.95 833.00 348.95ZM877.72 331.34L877.72 331.34L877.72 360L862.05 360L862.05 309.78L876.78 309.78L877.05 320.60Q879.03 315.39 882.84 312.27Q886.66 309.15 892.77 309.15L892.77 309.15Q900.63 309.15 905.40 314.31Q910.16 319.48 910.16 328.02L910.16 328.02L910.16 360L894.48 360L894.48 331.07Q894.48 326.85 892.32 324.44Q890.17 322.04 886.30 322.04L886.30 322.04Q882.49 322.04 880.10 324.49Q877.72 326.94 877.72 331.34ZM933.95 309.78L942.98 309.78L942.98 321.41L933.95 321.41L933.95 344.64Q933.95 348.54 937.95 348.54L937.95 348.54Q938.75 348.54 940.21 348.34Q941.67 348.14 942.30 348.01L942.30 348.01L944.32 359.42Q941.67 360.18 939.20 360.45Q936.73 360.72 934.53 360.72L934.53 360.72Q926.54 360.72 922.40 356.97Q918.27 353.22 918.27 346.03L918.27 346.03L918.27 321.41L911.62 321.41L911.62 309.78L918.27 309.78L918.27 297.83L933.95 297.83L933.95 309.78ZM969.82 360.94L969.82 360.94Q958.01 360.94 951.25 354.05Q944.49 347.15 944.49 335.07L944.49 335.07Q944.49 327.34 947.52 321.50Q950.55 315.66 956.12 312.41Q961.69 309.15 969.24 309.15L969.24 309.15Q976.29 309.15 981.75 312.09Q987.21 315.03 990.33 320.76Q993.45 326.49 993.45 334.75L993.45 334.75L993.45 338.71L959.89 338.71Q960.12 344.14 962.88 346.86Q965.64 349.58 970.09 349.58L970.09 349.58Q973.24 349.58 975.53 348.25Q977.82 346.93 978.76 344.41L978.76 344.41L992.73 346.70Q990.85 353.22 984.89 357.08Q978.94 360.94 969.82 360.94ZM959.98 329.59L959.98 329.59L978.58 329.59Q978.13 325.32 975.80 322.92Q973.46 320.51 969.37 320.51L969.37 320.51Q965.24 320.51 962.84 322.96Q960.43 325.41 959.98 329.59ZM1009.69 360L993.39 360L1008.98 334.21L994.33 309.78L1010.95 309.78L1014.82 316.96Q1016.07 319.35 1017.17 321.79Q1018.27 324.24 1019.35 326.67L1019.35 326.67Q1020.43 324.24 1021.58 321.79Q1022.72 319.35 1024.02 316.96L1024.02 316.96L1028.07 309.78L1044.42 309.78L1029.37 334.30L1045.09 360L1028.56 360L1023.71 351.29Q1022.41 348.90 1021.24 346.46Q1020.07 344.01 1018.99 341.58L1018.99 341.58Q1017.96 344.01 1016.84 346.46Q1015.71 348.90 1014.46 351.29L1014.46 351.29L1009.69 360ZM1065.20 309.78L1074.23 309.78L1074.23 321.41L1065.20 321.41L1065.20 344.64Q1065.20 348.54 1069.20 348.54L1069.20 348.54Q1070.01 348.54 1071.47 348.34Q1072.93 348.14 1073.56 348.01L1073.56 348.01L1075.58 359.42Q1072.93 360.18 1070.46 360.45Q1067.99 360.72 1065.78 360.72L1065.78 360.72Q1057.79 360.72 1053.66 356.97Q1049.52 353.22 1049.52 346.03L1049.52 346.03L1049.52 321.41L1042.87 321.41L1042.87 309.78L1049.52 309.78L1049.52 297.83L1065.20 297.83L1065.20 309.78Z"/>
  <path fill="#5eead4" d="M107.33 410L101.81 410L101.81 386.72L111.34 386.72Q115.28 386.72 117.55 388.80Q119.83 390.89 119.83 394.45L119.83 394.45Q119.83 396.86 118.77 398.55Q117.72 400.23 115.78 401.11L115.78 401.11L120.64 410L114.59 410L110.33 401.98L107.33 401.98L107.33 410ZM107.33 391.19L107.33 397.63L110.19 397.63Q114.11 397.63 114.11 394.45L114.11 394.45Q114.11 391.19 110.17 391.19L110.17 391.19L107.33 391.19ZM130.81 410.33L130.81 410.33Q126.70 410.33 124.34 407.93Q121.99 405.53 121.99 401.33L121.99 401.33Q121.99 398.64 123.05 396.61Q124.10 394.58 126.04 393.45Q127.98 392.31 130.60 392.31L130.60 392.31Q133.06 392.31 134.95 393.34Q136.85 394.36 137.94 396.35Q139.02 398.34 139.02 401.22L139.02 401.22L139.02 402.59L127.35 402.59Q127.43 404.48 128.39 405.43Q129.35 406.38 130.90 406.38L130.90 406.38Q131.99 406.38 132.79 405.91Q133.59 405.45 133.91 404.58L133.91 404.58L138.77 405.38Q138.12 407.64 136.05 408.98Q133.98 410.33 130.81 410.33ZM127.38 399.42L127.38 399.42L133.85 399.42Q133.70 397.94 132.88 397.10Q132.07 396.27 130.65 396.27L130.65 396.27Q129.21 396.27 128.38 397.12Q127.54 397.97 127.38 399.42ZM141.56 386.72L147.02 386.72L147.02 410L141.56 410L141.56 386.72ZM155.76 410L150.31 410L150.31 392.53L155.76 392.53L155.76 410ZM153.02 390.48L153.02 390.48Q151.87 390.48 151.04 389.72Q150.21 388.95 150.21 387.86L150.21 387.86Q150.21 386.77 151.04 386Q151.87 385.23 153.02 385.23L153.02 385.23Q154.20 385.23 155.02 386Q155.85 386.77 155.85 387.86L155.85 387.86Q155.85 388.95 155.02 389.72Q154.20 390.48 153.02 390.48ZM163.94 410.31L163.94 410.31Q161.42 410.31 159.81 409.03Q158.19 407.75 158.19 405.16L158.19 405.16Q158.19 403.22 159.08 402.08Q159.97 400.94 161.45 400.39Q162.92 399.84 164.69 399.69L164.69 399.69Q166.91 399.50 167.87 399.23Q168.83 398.95 168.83 398.14L168.83 398.14L168.83 398.08Q168.83 397.17 168.20 396.68Q167.56 396.19 166.45 396.19L166.45 396.19Q165.31 396.19 164.58 396.67Q163.85 397.16 163.63 397.98L163.63 397.98L158.69 397.34Q159.20 395.11 161.21 393.71Q163.22 392.31 166.50 392.31L166.50 392.31Q168.67 392.31 170.43 392.98Q172.19 393.66 173.23 394.96Q174.27 396.27 174.27 398.14L174.27 398.14L174.27 410L169.14 410L169.14 407.55L169.00 407.55Q167.55 410.31 163.94 410.31ZM165.60 406.70L165.60 406.70Q166.97 406.70 167.92 405.89Q168.88 405.08 168.88 403.78L168.88 403.78L168.88 402.11Q168.41 402.36 167.52 402.53Q166.63 402.70 165.86 402.83L165.86 402.83Q163.35 403.20 163.35 404.91L163.35 404.91Q163.35 405.78 163.98 406.24Q164.61 406.70 165.60 406.70ZM188.04 410.25L188.04 410.25Q186.04 410.25 184.85 409.30Q183.65 408.36 183.13 407.17L183.13 407.17L182.95 407.17L182.95 410L177.56 410L177.56 386.72L183.01 386.72L183.01 395.53L183.13 395.53Q183.46 394.75 184.09 394.01Q184.71 393.27 185.70 392.79Q186.68 392.31 188.07 392.31L188.07 392.31Q189.92 392.31 191.50 393.28Q193.09 394.25 194.06 396.23Q195.04 398.22 195.04 401.28L195.04 401.28Q195.04 404.25 194.10 406.24Q193.15 408.23 191.56 409.24Q189.98 410.25 188.04 410.25ZM186.18 406L186.18 406Q187.76 406 188.60 404.70Q189.43 403.41 189.43 401.28L189.43 401.28Q189.43 399.16 188.60 397.87Q187.76 396.58 186.18 396.58L186.18 396.58Q184.62 396.58 183.75 397.84Q182.88 399.11 182.88 401.28L182.88 401.28Q182.88 403.42 183.75 404.71Q184.62 406 186.18 406ZM197.64 386.72L203.10 386.72L203.10 410L197.64 410L197.64 386.72ZM214.53 410.33L214.53 410.33Q210.42 410.33 208.06 407.93Q205.71 405.53 205.71 401.33L205.71 401.33Q205.71 398.64 206.77 396.61Q207.82 394.58 209.76 393.45Q211.70 392.31 214.32 392.31L214.32 392.31Q216.78 392.31 218.67 393.34Q220.57 394.36 221.66 396.35Q222.74 398.34 222.74 401.22L222.74 401.22L222.74 402.59L211.07 402.59Q211.15 404.48 212.11 405.43Q213.07 406.38 214.62 406.38L214.62 406.38Q215.71 406.38 216.51 405.91Q217.31 405.45 217.64 404.58L217.64 404.58L222.49 405.38Q221.84 407.64 219.77 408.98Q217.70 410.33 214.53 410.33ZM211.10 399.42L211.10 399.42L217.57 399.42Q217.42 397.94 216.60 397.10Q215.79 396.27 214.37 396.27L214.37 396.27Q212.93 396.27 212.10 397.12Q211.26 397.97 211.10 399.42ZM240.07 410.33L240.07 410.33Q237.34 410.33 235.37 409.20Q233.40 408.06 232.35 406.04Q231.29 404.02 231.29 401.33L231.29 401.33Q231.29 398.64 232.35 396.61Q233.40 394.58 235.37 393.45Q237.34 392.31 240.07 392.31L240.07 392.31Q242.81 392.31 244.77 393.45Q246.73 394.58 247.78 396.61Q248.84 398.64 248.84 401.33L248.84 401.33Q248.84 404.02 247.78 406.04Q246.73 408.06 244.77 409.20Q242.81 410.33 240.07 410.33ZM240.07 406.16L240.07 406.16Q241.64 406.16 242.46 404.82Q243.29 403.48 243.29 401.30L243.29 401.30Q243.29 399.11 242.46 397.80Q241.64 396.48 240.07 396.48L240.07 396.48Q238.51 396.48 237.68 397.80Q236.85 399.11 236.85 401.30L236.85 401.30Q236.85 403.48 237.68 404.82Q238.51 406.16 240.07 406.16ZM256.91 400.03L256.91 400.03L256.91 410L251.46 410L251.46 392.53L256.58 392.53L256.68 396.30Q257.36 394.48 258.69 393.40Q260.02 392.31 262.14 392.31L262.14 392.31Q264.88 392.31 266.53 394.11Q268.19 395.91 268.19 398.88L268.19 398.88L268.19 410L262.74 410L262.74 399.94Q262.74 398.47 261.99 397.63Q261.24 396.80 259.89 396.80L259.89 396.80Q258.57 396.80 257.74 397.65Q256.91 398.50 256.91 400.03ZM271.46 386.72L276.92 386.72L276.92 410L271.46 410L271.46 386.72ZM285.66 410L280.21 410L280.21 392.53L285.66 392.53L285.66 410ZM282.93 390.48L282.93 390.48Q281.77 390.48 280.94 389.72Q280.11 388.95 280.11 387.86L280.11 387.86Q280.11 386.77 280.94 386Q281.77 385.23 282.93 385.23L282.93 385.23Q284.10 385.23 284.93 386Q285.75 386.77 285.75 387.86L285.75 387.86Q285.75 388.95 284.93 389.72Q284.10 390.48 282.93 390.48ZM294.40 400.03L294.40 400.03L294.40 410L288.95 410L288.95 392.53L294.07 392.53L294.17 396.30Q294.86 394.48 296.18 393.40Q297.51 392.31 299.64 392.31L299.64 392.31Q302.37 392.31 304.03 394.11Q305.68 395.91 305.68 398.88L305.68 398.88L305.68 410L300.23 410L300.23 399.94Q300.23 398.47 299.48 397.63Q298.73 396.80 297.39 396.80L297.39 396.80Q296.06 396.80 295.23 397.65Q294.40 398.50 294.40 400.03ZM317.10 410.33L317.10 410.33Q312.99 410.33 310.64 407.93Q308.29 405.53 308.29 401.33L308.29 401.33Q308.29 398.64 309.34 396.61Q310.40 394.58 312.33 393.45Q314.27 392.31 316.90 392.31L316.90 392.31Q319.35 392.31 321.25 393.34Q323.15 394.36 324.23 396.35Q325.32 398.34 325.32 401.22L325.32 401.22L325.32 402.59L313.65 402.59Q313.72 404.48 314.68 405.43Q315.65 406.38 317.19 406.38L317.19 406.38Q318.29 406.38 319.08 405.91Q319.88 405.45 320.21 404.58L320.21 404.58L325.07 405.38Q324.41 407.64 322.34 408.98Q320.27 410.33 317.10 410.33ZM313.68 399.42L313.68 399.42L320.15 399.42Q319.99 397.94 319.18 397.10Q318.36 396.27 316.94 396.27L316.94 396.27Q315.50 396.27 314.67 397.12Q313.83 397.97 313.68 399.42ZM340.55 385.63L345.21 385.63L337.71 413.50L333.05 413.50L340.55 385.63ZM361.80 410.33L361.80 410.33Q359.07 410.33 357.10 409.20Q355.13 408.06 354.08 406.04Q353.02 404.02 353.02 401.33L353.02 401.33Q353.02 398.64 354.08 396.61Q355.13 394.58 357.10 393.45Q359.07 392.31 361.80 392.31L361.80 392.31Q364.54 392.31 366.50 393.45Q368.46 394.58 369.51 396.61Q370.57 398.64 370.57 401.33L370.57 401.33Q370.57 404.02 369.51 406.04Q368.46 408.06 366.50 409.20Q364.54 410.33 361.80 410.33ZM361.80 406.16L361.80 406.16Q363.37 406.16 364.19 404.82Q365.02 403.48 365.02 401.30L365.02 401.30Q365.02 399.11 364.19 397.80Q363.37 396.48 361.80 396.48L361.80 396.48Q360.24 396.48 359.41 397.80Q358.58 399.11 358.58 401.30L358.58 401.30Q358.58 403.48 359.41 404.82Q360.24 406.16 361.80 406.16ZM380.06 392.53L383.56 392.53L383.56 396.58L380.06 396.58L380.06 410L374.64 410L374.64 396.58L371.70 396.58L371.70 392.53L374.64 392.53L374.64 391.59Q374.64 388.59 376.30 387.11Q377.95 385.63 380.58 385.63L380.58 385.63Q381.73 385.63 382.75 385.80Q383.76 385.98 384.25 386.13L384.25 386.13L383.37 390.11Q383.06 390.03 382.64 389.96Q382.22 389.89 381.80 389.89L381.80 389.89Q380.83 389.89 380.44 390.34Q380.06 390.78 380.06 391.55L380.06 391.55L380.06 392.53ZM392.85 392.53L396.35 392.53L396.35 396.58L392.85 396.58L392.85 410L387.43 410L387.43 396.58L384.49 396.58L384.49 392.53L387.43 392.53L387.43 391.59Q387.43 388.59 389.08 387.11Q390.74 385.63 393.37 385.63L393.37 385.63Q394.52 385.63 395.54 385.80Q396.55 385.98 397.04 386.13L397.04 386.13L396.16 390.11Q395.85 390.03 395.43 389.96Q395.01 389.89 394.58 389.89L394.58 389.89Q393.62 389.89 393.23 390.34Q392.85 390.78 392.85 391.55L392.85 391.55L392.85 392.53ZM398.76 386.72L404.22 386.72L404.22 410L398.76 410L398.76 386.72ZM412.96 410L407.51 410L407.51 392.53L412.96 392.53L412.96 410ZM410.23 390.48L410.23 390.48Q409.07 390.48 408.24 389.72Q407.41 388.95 407.41 387.86L407.41 387.86Q407.41 386.77 408.24 386Q409.07 385.23 410.23 385.23L410.23 385.23Q411.40 385.23 412.23 386Q413.05 386.77 413.05 387.86L413.05 387.86Q413.05 388.95 412.23 389.72Q411.40 390.48 410.23 390.48ZM421.70 400.03L421.70 400.03L421.70 410L416.25 410L416.25 392.53L421.37 392.53L421.47 396.30Q422.16 394.48 423.48 393.40Q424.81 392.31 426.94 392.31L426.94 392.31Q429.67 392.31 431.33 394.11Q432.98 395.91 432.98 398.88L432.98 398.88L432.98 410L427.53 410L427.53 399.94Q427.53 398.47 426.78 397.63Q426.03 396.80 424.69 396.80L424.69 396.80Q423.36 396.80 422.53 397.65Q421.70 398.50 421.70 400.03ZM444.40 410.33L444.40 410.33Q440.29 410.33 437.94 407.93Q435.59 405.53 435.59 401.33L435.59 401.33Q435.59 398.64 436.64 396.61Q437.70 394.58 439.63 393.45Q441.57 392.31 444.20 392.31L444.20 392.31Q446.65 392.31 448.55 393.34Q450.45 394.36 451.53 396.35Q452.62 398.34 452.62 401.22L452.62 401.22L452.62 402.59L440.95 402.59Q441.02 404.48 441.98 405.43Q442.95 406.38 444.49 406.38L444.49 406.38Q445.59 406.38 446.38 405.91Q447.18 405.45 447.51 404.58L447.51 404.58L452.37 405.38Q451.71 407.64 449.64 408.98Q447.57 410.33 444.40 410.33ZM440.98 399.42L440.98 399.42L447.45 399.42Q447.29 397.94 446.48 397.10Q445.66 396.27 444.24 396.27L444.24 396.27Q442.80 396.27 441.97 397.12Q441.13 397.97 440.98 399.42ZM468.16 410.25L468.16 410.25Q466.23 410.25 464.63 409.24Q463.04 408.23 462.10 406.24Q461.16 404.25 461.16 401.28L461.16 401.28Q461.16 398.22 462.14 396.23Q463.12 394.25 464.70 393.28Q466.29 392.31 468.12 392.31L468.12 392.31Q469.51 392.31 470.49 392.79Q471.48 393.27 472.11 394.01Q472.74 394.75 473.07 395.53L473.07 395.53L473.20 395.53L473.20 386.72L478.63 386.72L478.63 410L473.26 410L473.26 407.17L473.07 407.17Q472.56 408.36 471.36 409.30Q470.16 410.25 468.16 410.25ZM470.02 406L470.02 406Q471.57 406 472.45 404.71Q473.32 403.42 473.32 401.28L473.32 401.28Q473.32 399.11 472.45 397.84Q471.59 396.58 470.02 396.58L470.02 396.58Q468.45 396.58 467.61 397.87Q466.77 399.16 466.77 401.28L466.77 401.28Q466.77 403.41 467.61 404.70Q468.45 406 470.02 406ZM490.06 410.33L490.06 410.33Q485.95 410.33 483.60 407.93Q481.25 405.53 481.25 401.33L481.25 401.33Q481.25 398.64 482.31 396.61Q483.36 394.58 485.30 393.45Q487.24 392.31 489.86 392.31L489.86 392.31Q492.31 392.31 494.21 393.34Q496.11 394.36 497.20 396.35Q498.28 398.34 498.28 401.22L498.28 401.22L498.28 402.59L486.61 402.59Q486.69 404.48 487.65 405.43Q488.61 406.38 490.16 406.38L490.16 406.38Q491.25 406.38 492.05 405.91Q492.84 405.45 493.17 404.58L493.17 404.58L498.03 405.38Q497.38 407.64 495.31 408.98Q493.24 410.33 490.06 410.33ZM486.64 399.42L486.64 399.42L493.11 399.42Q492.95 397.94 492.14 397.10Q491.33 396.27 489.91 396.27L489.91 396.27Q488.47 396.27 487.63 397.12Q486.80 397.97 486.64 399.42ZM507.10 392.53L510.24 392.53L510.24 396.58L507.10 396.58L507.10 404.66Q507.10 406.02 508.49 406.02L508.49 406.02Q508.77 406.02 509.28 405.95Q509.79 405.88 510.01 405.83L510.01 405.83L510.71 409.80Q509.79 410.06 508.93 410.16Q508.07 410.25 507.31 410.25L507.31 410.25Q504.52 410.25 503.09 408.95Q501.65 407.64 501.65 405.14L501.65 405.14L501.65 396.58L499.34 396.58L499.34 392.53L501.65 392.53L501.65 388.38L507.10 388.38L507.10 392.53ZM520.86 410.33L520.86 410.33Q516.75 410.33 514.40 407.93Q512.05 405.53 512.05 401.33L512.05 401.33Q512.05 398.64 513.10 396.61Q514.16 394.58 516.10 393.45Q518.03 392.31 520.66 392.31L520.66 392.31Q523.11 392.31 525.01 393.34Q526.91 394.36 527.99 396.35Q529.08 398.34 529.08 401.22L529.08 401.22L529.08 402.59L517.41 402.59Q517.49 404.48 518.45 405.43Q519.41 406.38 520.95 406.38L520.95 406.38Q522.05 406.38 522.85 405.91Q523.64 405.45 523.97 404.58L523.97 404.58L528.83 405.38Q528.17 407.64 526.10 408.98Q524.03 410.33 520.86 410.33ZM517.44 399.42L517.44 399.42L523.91 399.42Q523.75 397.94 522.94 397.10Q522.13 396.27 520.70 396.27L520.70 396.27Q519.27 396.27 518.43 397.12Q517.60 397.97 517.44 399.42ZM539.73 410.33L539.73 410.33Q536.99 410.33 535.03 409.20Q533.06 408.06 532.00 406.04Q530.95 404.02 530.95 401.33L530.95 401.33Q530.95 398.64 532.00 396.61Q533.06 394.58 535.03 393.45Q536.99 392.31 539.73 392.31L539.73 392.31Q543.07 392.31 545.22 393.98Q547.37 395.66 547.78 398.52L547.78 398.52L542.74 399.36Q542.48 397.98 541.74 397.23Q540.99 396.48 539.79 396.48L539.79 396.48Q538.23 396.48 537.37 397.76Q536.51 399.03 536.51 401.30L536.51 401.30Q536.51 403.55 537.37 404.85Q538.23 406.16 539.79 406.16L539.79 406.16Q540.99 406.16 541.75 405.38Q542.51 404.59 542.76 403.19L542.76 403.19L547.79 404Q547.38 406.94 545.24 408.63Q543.10 410.33 539.73 410.33ZM556.63 392.53L559.77 392.53L559.77 396.58L556.63 396.58L556.63 404.66Q556.63 406.02 558.02 406.02L558.02 406.02Q558.30 406.02 558.81 405.95Q559.31 405.88 559.53 405.83L559.53 405.83L560.24 409.80Q559.31 410.06 558.46 410.16Q557.60 410.25 556.83 410.25L556.83 410.25Q554.05 410.25 552.61 408.95Q551.17 407.64 551.17 405.14L551.17 405.14L551.17 396.58L548.86 396.58L548.86 392.53L551.17 392.53L551.17 388.38L556.63 388.38L556.63 392.53ZM567.70 410L562.24 410L562.24 392.53L567.70 392.53L567.70 410ZM564.96 390.48L564.96 390.48Q563.81 390.48 562.98 389.72Q562.15 388.95 562.15 387.86L562.15 387.86Q562.15 386.77 562.98 386Q563.81 385.23 564.96 385.23L564.96 385.23Q566.14 385.23 566.96 386Q567.79 386.77 567.79 387.86L567.79 387.86Q567.79 388.95 566.96 389.72Q566.14 390.48 564.96 390.48ZM579.10 410.33L579.10 410.33Q576.36 410.33 574.39 409.20Q572.42 408.06 571.37 406.04Q570.32 404.02 570.32 401.33L570.32 401.33Q570.32 398.64 571.37 396.61Q572.42 394.58 574.39 393.45Q576.36 392.31 579.10 392.31L579.10 392.31Q581.83 392.31 583.79 393.45Q585.75 394.58 586.81 396.61Q587.86 398.64 587.86 401.33L587.86 401.33Q587.86 404.02 586.81 406.04Q585.75 408.06 583.79 409.20Q581.83 410.33 579.10 410.33ZM579.10 406.16L579.10 406.16Q580.66 406.16 581.49 404.82Q582.32 403.48 582.32 401.30L582.32 401.30Q582.32 399.11 581.49 397.80Q580.66 396.48 579.10 396.48L579.10 396.48Q577.53 396.48 576.71 397.80Q575.88 399.11 575.88 401.30L575.88 401.30Q575.88 403.48 576.71 404.82Q577.53 406.16 579.10 406.16ZM595.93 400.03L595.93 400.03L595.93 410L590.48 410L590.48 392.53L595.60 392.53L595.70 396.30Q596.39 394.48 597.71 393.40Q599.04 392.31 601.17 392.31L601.17 392.31Q603.90 392.31 605.56 394.11Q607.21 395.91 607.21 398.88L607.21 398.88L607.21 410L601.76 410L601.76 399.94Q601.76 398.47 601.01 397.63Q600.26 396.80 598.92 396.80L598.92 396.80Q597.59 396.80 596.76 397.65Q595.93 398.50 595.93 400.03ZM624.04 392.53L627.54 392.53L627.54 396.58L624.04 396.58L624.04 410L618.62 410L618.62 396.58L615.68 396.58L615.68 392.53L618.62 392.53L618.62 391.59Q618.62 388.59 620.28 387.11Q621.93 385.63 624.56 385.63L624.56 385.63Q625.71 385.63 626.73 385.80Q627.75 385.98 628.23 386.13L628.23 386.13L627.35 390.11Q627.04 390.03 626.62 389.96Q626.20 389.89 625.78 389.89L625.78 389.89Q624.81 389.89 624.43 390.34Q624.04 390.78 624.04 391.55L624.04 391.55L624.04 392.53ZM638.07 410.33L638.07 410.33Q635.33 410.33 633.36 409.20Q631.39 408.06 630.34 406.04Q629.28 404.02 629.28 401.33L629.28 401.33Q629.28 398.64 630.34 396.61Q631.39 394.58 633.36 393.45Q635.33 392.31 638.07 392.31L638.07 392.31Q640.80 392.31 642.76 393.45Q644.72 394.58 645.78 396.61Q646.83 398.64 646.83 401.33L646.83 401.33Q646.83 404.02 645.78 406.04Q644.72 408.06 642.76 409.20Q640.80 410.33 638.07 410.33ZM638.07 406.16L638.07 406.16Q639.63 406.16 640.46 404.82Q641.28 403.48 641.28 401.30L641.28 401.30Q641.28 399.11 640.46 397.80Q639.63 396.48 638.07 396.48L638.07 396.48Q636.50 396.48 635.68 397.80Q634.85 399.11 634.85 401.30L634.85 401.30Q634.85 403.48 635.68 404.82Q636.50 406.16 638.07 406.16ZM654.90 410L649.45 410L649.45 392.53L654.75 392.53L654.75 395.72L654.93 395.72Q655.40 394 656.49 393.16Q657.57 392.31 659.01 392.31L659.01 392.31Q659.81 392.31 660.56 392.50L660.56 392.50L660.56 397.25Q660.17 397.11 659.54 397.04Q658.90 396.97 658.40 396.97L658.40 396.97Q656.89 396.97 655.89 397.94Q654.90 398.91 654.90 400.47L654.90 400.47L654.90 410ZM674.78 410L669.26 410L669.26 386.72L678.79 386.72Q682.73 386.72 685.00 388.80Q687.28 390.89 687.28 394.45L687.28 394.45Q687.28 396.86 686.22 398.55Q685.17 400.23 683.23 401.11L683.23 401.11L688.09 410L682.04 410L677.78 401.98L674.78 401.98L674.78 410ZM674.78 391.19L674.78 397.63L677.64 397.63Q681.56 397.63 681.56 394.45L681.56 394.45Q681.56 391.19 677.62 391.19L677.62 391.19L674.78 391.19ZM698.25 410.33L698.25 410.33Q694.15 410.33 691.79 407.93Q689.44 405.53 689.44 401.33L689.44 401.33Q689.44 398.64 690.50 396.61Q691.55 394.58 693.49 393.45Q695.43 392.31 698.05 392.31L698.05 392.31Q700.50 392.31 702.40 393.34Q704.30 394.36 705.39 396.35Q706.47 398.34 706.47 401.22L706.47 401.22L706.47 402.59L694.80 402.59Q694.88 404.48 695.84 405.43Q696.80 406.38 698.35 406.38L698.35 406.38Q699.44 406.38 700.24 405.91Q701.04 405.45 701.36 404.58L701.36 404.58L706.22 405.38Q705.57 407.64 703.50 408.98Q701.43 410.33 698.25 410.33ZM694.83 399.42L694.83 399.42L701.30 399.42Q701.15 397.94 700.33 397.10Q699.52 396.27 698.10 396.27L698.10 396.27Q696.66 396.27 695.83 397.12Q694.99 397.97 694.83 399.42ZM713.90 410.31L713.90 410.31Q711.39 410.31 709.77 409.03Q708.15 407.75 708.15 405.16L708.15 405.16Q708.15 403.22 709.04 402.08Q709.93 400.94 711.41 400.39Q712.89 399.84 714.65 399.69L714.65 399.69Q716.87 399.50 717.83 399.23Q718.79 398.95 718.79 398.14L718.79 398.14L718.79 398.08Q718.79 397.17 718.16 396.68Q717.53 396.19 716.42 396.19L716.42 396.19Q715.28 396.19 714.54 396.67Q713.81 397.16 713.59 397.98L713.59 397.98L708.65 397.34Q709.17 395.11 711.18 393.71Q713.18 392.31 716.47 392.31L716.47 392.31Q718.64 392.31 720.40 392.98Q722.15 393.66 723.19 394.96Q724.23 396.27 724.23 398.14L724.23 398.14L724.23 410L719.11 410L719.11 407.55L718.97 407.55Q717.51 410.31 713.90 410.31ZM715.56 406.70L715.56 406.70Q716.93 406.70 717.89 405.89Q718.84 405.08 718.84 403.78L718.84 403.78L718.84 402.11Q718.37 402.36 717.48 402.53Q716.59 402.70 715.83 402.83L715.83 402.83Q713.31 403.20 713.31 404.91L713.31 404.91Q713.31 405.78 713.94 406.24Q714.58 406.70 715.56 406.70ZM735.63 410.33L735.63 410.33Q732.90 410.33 730.93 409.20Q728.96 408.06 727.90 406.04Q726.85 404.02 726.85 401.33L726.85 401.33Q726.85 398.64 727.90 396.61Q728.96 394.58 730.93 393.45Q732.90 392.31 735.63 392.31L735.63 392.31Q738.97 392.31 741.12 393.98Q743.27 395.66 743.68 398.52L743.68 398.52L738.65 399.36Q738.38 397.98 737.64 397.23Q736.90 396.48 735.69 396.48L735.69 396.48Q734.13 396.48 733.27 397.76Q732.41 399.03 732.41 401.30L732.41 401.30Q732.41 403.55 733.27 404.85Q734.13 406.16 735.69 406.16L735.69 406.16Q736.90 406.16 737.65 405.38Q738.41 404.59 738.66 403.19L738.66 403.19L743.69 404Q743.29 406.94 741.15 408.63Q739.01 410.33 735.63 410.33ZM752.53 392.53L755.67 392.53L755.67 396.58L752.53 396.58L752.53 404.66Q752.53 406.02 753.92 406.02L753.92 406.02Q754.20 406.02 754.71 405.95Q755.22 405.88 755.44 405.83L755.44 405.83L756.14 409.80Q755.22 410.06 754.36 410.16Q753.50 410.25 752.73 410.25L752.73 410.25Q749.95 410.25 748.51 408.95Q747.08 407.64 747.08 405.14L747.08 405.14L747.08 396.58L744.76 396.58L744.76 392.53L747.08 392.53L747.08 388.38L752.53 388.38L752.53 392.53Z"/>

  <!-- Terminal-style install line -->
  <g>
    <rect x="100" y="480" width="636.0000000000003" height="48" rx="10" fill="#1a0b1f" stroke="#14b8a6" stroke-opacity="0.35" stroke-width="1"/>
    <path fill="#14b8a6" d="M118.61 513.64L116.99 513.64L116.99 510.21Q114.45 510 112.98 508.60Q111.51 507.19 111.48 504.90L111.48 504.90L114.73 504.90Q114.73 505.87 115.33 506.50Q115.93 507.14 116.99 507.35L116.99 507.35L116.99 501.84L116.53 501.71Q114.29 501.13 113.08 499.65Q111.87 498.17 111.87 496.06L111.87 496.06Q111.87 493.85 113.25 492.44Q114.63 491.02 116.99 490.81L116.99 490.81L116.99 487.38L118.61 487.38L118.61 490.79Q121.02 490.99 122.42 492.38Q123.81 493.78 123.83 495.99L123.83 495.99L120.58 495.99Q120.58 494.06 118.61 493.67L118.61 493.67L118.61 498.92L119.46 499.16Q121.73 499.73 122.92 501.20Q124.12 502.67 124.12 504.83L124.12 504.83Q124.12 507.09 122.62 508.56Q121.13 510.03 118.61 510.23L118.61 510.23L118.61 513.64ZM115.12 495.88L115.12 495.88Q115.12 496.79 115.60 497.47Q116.08 498.14 116.99 498.46L116.99 498.46L116.99 493.67Q115.12 494.04 115.12 495.88ZM118.61 502.36L118.61 507.37Q119.67 507.22 120.27 506.58Q120.87 505.94 120.87 504.96L120.87 504.96Q120.87 503.99 120.27 503.29Q119.67 502.59 118.61 502.36L118.61 502.36Z"/>
    <path fill="#fafafa" d="M143.25 510L140.00 510L140.00 495.70L143.17 495.70L143.17 498.38Q143.43 497.03 144.45 496.23Q145.46 495.44 147.02 495.44L147.02 495.44Q149.13 495.44 150.39 496.84Q151.65 498.25 151.65 500.61L151.65 500.61L151.65 510L148.40 510L148.40 501.00Q148.40 499.68 147.71 498.96Q147.02 498.25 145.85 498.25L145.85 498.25Q144.63 498.25 143.94 498.98Q143.25 499.70 143.25 501.06L143.25 501.06L143.25 510ZM158.85 514.68L155.60 514.68L155.60 495.70L158.77 495.70L158.77 498.33Q159.16 496.97 160.18 496.21Q161.19 495.44 162.70 495.44L162.70 495.44Q164.08 495.44 165.13 496.12Q166.18 496.79 166.77 498.03Q167.35 499.26 167.35 500.90L167.35 500.90L167.35 504.77Q167.35 507.24 166.08 508.75Q164.81 510.26 162.70 510.26L162.70 510.26Q161.19 510.26 160.16 509.48Q159.14 508.70 158.75 507.30L158.75 507.30L158.85 510.68L158.85 514.68ZM161.48 507.45L161.48 507.45Q162.73 507.45 163.41 506.78Q164.10 506.10 164.10 504.70L164.10 504.70L164.10 501.00Q164.10 499.60 163.41 498.92Q162.73 498.25 161.48 498.25L161.48 498.25Q160.23 498.25 159.54 499.00Q158.85 499.76 158.85 501.13L158.85 501.13L158.85 504.57Q158.85 505.94 159.54 506.70Q160.23 507.45 161.48 507.45ZM173.28 510L170.42 510L170.42 495.70L173.13 495.70L173.13 497.78L173.20 497.78Q173.28 496.74 173.93 496.09Q174.58 495.44 175.57 495.44L175.57 495.44Q176.53 495.44 177.21 496.05Q177.88 496.66 178.12 497.70L178.12 497.70Q178.22 496.66 178.88 496.05Q179.55 495.44 180.56 495.44L180.56 495.44Q181.86 495.44 182.72 496.47Q183.58 497.49 183.58 499.11L183.58 499.11L183.58 510L180.72 510L180.72 499.34Q180.72 498.64 180.39 498.24Q180.07 497.83 179.47 497.83L179.47 497.83Q178.30 497.83 178.30 499.34L178.30 499.34L178.30 510L175.70 510L175.70 499.34Q175.70 498.64 175.40 498.24Q175.10 497.83 174.53 497.83L174.53 497.83Q173.28 497.83 173.28 499.34L173.28 499.34L173.28 510ZM214.91 510L202.38 510L202.38 507.06L207.26 507.06L207.26 498.64L202.90 498.64L202.90 495.70L210.51 495.70L210.51 507.06L214.91 507.06L214.91 510ZM208.67 493.31L208.67 493.31Q207.68 493.31 207.11 492.80Q206.54 492.29 206.54 491.44L206.54 491.44Q206.54 490.58 207.11 490.07Q207.68 489.56 208.67 489.56L208.67 489.56Q209.66 489.56 210.23 490.07Q210.80 490.58 210.80 491.44L210.80 491.44Q210.80 492.29 210.23 492.80Q209.66 493.31 208.67 493.31ZM221.25 510L218.00 510L218.00 495.70L221.17 495.70L221.17 498.38Q221.43 497.03 222.45 496.23Q223.46 495.44 225.02 495.44L225.02 495.44Q227.13 495.44 228.39 496.84Q229.65 498.25 229.65 500.61L229.65 500.61L229.65 510L226.40 510L226.40 501.00Q226.40 499.68 225.71 498.96Q225.02 498.25 223.85 498.25L223.85 498.25Q222.63 498.25 221.94 498.98Q221.25 499.70 221.25 501.06L221.25 501.06L221.25 510ZM239.95 510.23L238.80 510.23Q236.25 510.23 234.77 509.08Q233.29 507.92 233.29 505.94L233.29 505.94L236.49 505.94Q236.49 506.78 237.10 507.22Q237.71 507.66 238.80 507.66L238.80 507.66L239.95 507.66Q241.12 507.66 241.75 507.22Q242.39 506.78 242.39 505.94L242.39 505.94Q242.39 505.16 241.95 504.79Q241.51 504.41 240.60 504.28L240.60 504.28L237.03 503.81Q235.32 503.58 234.39 502.49Q233.47 501.39 233.47 499.65L233.47 499.65Q233.47 497.62 234.82 496.55Q236.18 495.47 238.72 495.47L238.72 495.47L239.92 495.47Q242.31 495.47 243.77 496.56Q245.22 497.65 245.28 499.47L245.28 499.47L242.05 499.47Q242.03 498.79 241.45 498.39Q240.88 497.99 239.92 497.99L239.92 497.99L238.72 497.99Q237.68 497.99 237.14 498.42Q236.59 498.85 236.59 499.57L236.59 499.57Q236.59 500.22 236.99 500.54Q237.40 500.85 238.18 500.93L238.18 500.93L241.53 501.39Q243.51 501.63 244.51 502.79Q245.51 503.94 245.51 505.89L245.51 505.89Q245.51 507.97 244.09 509.10Q242.68 510.23 239.95 510.23L239.95 510.23ZM260.90 510L256.43 510Q254.43 510 253.24 508.84Q252.06 507.69 252.06 505.71L252.06 505.71L252.06 498.64L248.11 498.64L248.11 495.70L252.06 495.70L252.06 491.67L255.34 491.67L255.34 495.70L261.03 495.70L261.03 498.64L255.34 498.64L255.34 505.63Q255.34 506.26 255.69 506.66Q256.04 507.06 256.66 507.06L256.66 507.06L260.90 507.06L260.90 510ZM269.01 510.26L269.01 510.26Q266.83 510.26 265.57 509.02Q264.31 507.79 264.31 505.79L264.31 505.79Q264.31 503.71 265.74 502.47Q267.17 501.24 269.66 501.24L269.66 501.24L273.15 501.24L273.15 500.22Q273.15 498.07 270.63 498.07L270.63 498.07Q269.48 498.07 268.81 498.51Q268.13 498.95 268.05 499.76L268.05 499.76L264.93 499.76Q265.04 497.83 266.56 496.64Q268.08 495.44 270.65 495.44L270.65 495.44Q273.38 495.44 274.89 496.71Q276.40 497.99 276.40 500.30L276.40 500.30L276.40 510L273.23 510L273.23 507.32Q273.04 508.70 271.93 509.48Q270.81 510.26 269.01 510.26ZM270.05 507.61L270.05 507.61Q271.48 507.61 272.32 506.91Q273.15 506.20 273.15 505.03L273.15 505.03L273.15 503.34L269.82 503.34Q268.75 503.34 268.13 503.94Q267.51 504.54 267.51 505.48L267.51 505.48Q267.51 506.44 268.17 507.02Q268.83 507.61 270.05 507.61ZM292.93 510L288.51 510Q286.38 510 285.09 508.73Q283.81 507.45 283.81 505.37L283.81 505.37L283.81 493.96L279.10 493.96L279.10 491.02L287.06 491.02L287.06 505.29Q287.06 506.10 287.51 506.58Q287.97 507.06 288.75 507.06L288.75 507.06L292.93 507.06L292.93 510ZM308.53 510L304.11 510Q301.98 510 300.69 508.73Q299.41 507.45 299.41 505.37L299.41 505.37L299.41 493.96L294.70 493.96L294.70 491.02L302.66 491.02L302.66 505.29Q302.66 506.10 303.11 506.58Q303.57 507.06 304.35 507.06L304.35 507.06L308.53 507.06L308.53 510ZM330.97 510L327.72 510L327.72 495.70L330.89 495.70L330.89 498.48Q331.15 497.08 332.18 496.26Q333.21 495.44 334.85 495.44L334.85 495.44Q337.03 495.44 338.25 496.84Q339.47 498.25 339.47 500.77L339.47 500.77L339.47 502.12L336.22 502.12L336.22 500.93Q336.22 499.63 335.55 498.94Q334.87 498.25 333.62 498.25L333.62 498.25Q332.32 498.25 331.65 499.03Q330.97 499.81 330.97 501.24L330.97 501.24L330.97 510ZM348.63 510.26L348.63 510.26Q346.81 510.26 345.45 509.56Q344.10 508.86 343.36 507.57Q342.62 506.28 342.62 504.54L342.62 504.54L342.62 501.16Q342.62 499.42 343.36 498.13Q344.10 496.84 345.45 496.14Q346.81 495.44 348.63 495.44L348.63 495.44Q350.42 495.44 351.76 496.14Q353.10 496.84 353.84 498.11Q354.58 499.37 354.58 501.06L354.58 501.06L354.58 503.66L345.74 503.66L345.74 504.64Q345.74 506.10 346.49 506.84Q347.25 507.58 348.63 507.58L348.63 507.58Q349.64 507.58 350.36 507.23Q351.07 506.88 351.20 506.20L351.20 506.20L354.42 506.20Q354.09 508.05 352.50 509.15Q350.91 510.26 348.63 510.26ZM345.74 501.06L345.74 501.06L345.74 501.55L351.46 501.52L351.46 501.03Q351.46 499.55 350.73 498.74Q350.00 497.94 348.63 497.94L348.63 497.94Q347.20 497.94 346.47 498.75Q345.74 499.57 345.74 501.06ZM362.61 510.26L362.61 510.26Q360.43 510.26 359.17 509.02Q357.91 507.79 357.91 505.79L357.91 505.79Q357.91 503.71 359.34 502.47Q360.77 501.24 363.26 501.24L363.26 501.24L366.75 501.24L366.75 500.22Q366.75 498.07 364.23 498.07L364.23 498.07Q363.08 498.07 362.41 498.51Q361.73 498.95 361.65 499.76L361.65 499.76L358.53 499.76Q358.64 497.83 360.16 496.64Q361.68 495.44 364.25 495.44L364.25 495.44Q366.98 495.44 368.49 496.71Q370.00 497.99 370.00 500.30L370.00 500.30L370.00 510L366.83 510L366.83 507.32Q366.64 508.70 365.53 509.48Q364.41 510.26 362.61 510.26ZM363.65 507.61L363.65 507.61Q365.08 507.61 365.92 506.91Q366.75 506.20 366.75 505.03L366.75 505.03L366.75 503.34L363.42 503.34Q362.35 503.34 361.73 503.94Q361.11 504.54 361.11 505.48L361.11 505.48Q361.11 506.44 361.77 507.02Q362.43 507.61 363.65 507.61ZM380.03 510.26L380.03 510.26Q378.19 510.26 376.82 509.57Q375.46 508.88 374.70 507.62Q373.95 506.36 373.95 504.64L373.95 504.64L373.95 501.06Q373.95 499.34 374.70 498.08Q375.46 496.82 376.82 496.13Q378.19 495.44 380.03 495.44L380.03 495.44Q382.71 495.44 384.34 496.83Q385.96 498.22 386.04 500.61L386.04 500.61L382.84 500.61Q382.76 499.50 382.00 498.88Q381.23 498.27 380.03 498.27L380.03 498.27Q378.71 498.27 377.95 498.99Q377.20 499.70 377.20 501.03L377.20 501.03L377.20 504.64Q377.20 505.97 377.95 506.70Q378.71 507.43 380.03 507.43L380.03 507.43Q381.26 507.43 382.01 506.81Q382.76 506.20 382.84 505.09L382.84 505.09L386.04 505.09Q385.96 507.48 384.34 508.87Q382.71 510.26 380.03 510.26ZM401.30 510L396.83 510Q394.83 510 393.65 508.84Q392.46 507.69 392.46 505.71L392.46 505.71L392.46 498.64L388.51 498.64L388.51 495.70L392.46 495.70L392.46 491.67L395.74 491.67L395.74 495.70L401.43 495.70L401.43 498.64L395.74 498.64L395.74 505.63Q395.74 506.26 396.09 506.66Q396.44 507.06 397.06 507.06L397.06 507.06L401.30 507.06L401.30 510ZM415.16 502.93L406.84 502.93L406.84 499.91L415.16 499.91L415.16 502.93ZM433.31 510L420.78 510L420.78 507.06L425.66 507.06L425.66 498.64L421.30 498.64L421.30 495.70L428.91 495.70L428.91 507.06L433.31 507.06L433.31 510ZM427.07 493.31L427.07 493.31Q426.08 493.31 425.51 492.80Q424.94 492.29 424.94 491.44L424.94 491.44Q424.94 490.58 425.51 490.07Q426.08 489.56 427.07 489.56L427.07 489.56Q428.06 489.56 428.63 490.07Q429.20 490.58 429.20 491.44L429.20 491.44Q429.20 492.29 428.63 492.80Q428.06 493.31 427.07 493.31ZM442.75 510.23L441.60 510.23Q439.05 510.23 437.57 509.08Q436.09 507.92 436.09 505.94L436.09 505.94L439.29 505.94Q439.29 506.78 439.90 507.22Q440.51 507.66 441.60 507.66L441.60 507.66L442.75 507.66Q443.92 507.66 444.55 507.22Q445.19 506.78 445.19 505.94L445.19 505.94Q445.19 505.16 444.75 504.79Q444.31 504.41 443.40 504.28L443.40 504.28L439.83 503.81Q438.12 503.58 437.20 502.49Q436.27 501.39 436.27 499.65L436.27 499.65Q436.27 497.62 437.62 496.55Q438.98 495.47 441.52 495.47L441.52 495.47L442.72 495.47Q445.11 495.47 446.57 496.56Q448.02 497.65 448.08 499.47L448.08 499.47L444.85 499.47Q444.83 498.79 444.25 498.39Q443.68 497.99 442.72 497.99L442.72 497.99L441.52 497.99Q440.48 497.99 439.94 498.42Q439.39 498.85 439.39 499.57L439.39 499.57Q439.39 500.22 439.80 500.54Q440.20 500.85 440.98 500.93L440.98 500.93L444.33 501.39Q446.31 501.63 447.31 502.79Q448.31 503.94 448.31 505.89L448.31 505.89Q448.31 507.97 446.89 509.10Q445.48 510.23 442.75 510.23L442.75 510.23ZM461.96 502.93L453.64 502.93L453.64 499.91L461.96 499.91L461.96 502.93ZM473.40 510.23L473.40 510.23Q470.64 510.23 469.03 508.69Q467.42 507.14 467.42 504.51L467.42 504.51L467.42 501.19Q467.42 498.53 469.03 497Q470.64 495.47 473.40 495.47L473.40 495.47Q476.16 495.47 477.77 497Q479.38 498.53 479.38 501.19L479.38 501.19L479.38 504.51Q479.38 507.14 477.77 508.69Q476.16 510.23 473.40 510.23ZM473.40 507.40L473.40 507.40Q474.70 507.40 475.42 506.69Q476.13 505.97 476.13 504.62L476.13 504.62L476.13 501.08Q476.13 499.73 475.42 499.01Q474.70 498.30 473.40 498.30L473.40 498.30Q472.10 498.30 471.39 499.01Q470.67 499.73 470.67 501.08L470.67 501.08L470.67 504.62Q470.67 505.97 471.39 506.69Q472.10 507.40 473.40 507.40ZM486.45 510L483.20 510L483.20 495.70L486.37 495.70L486.37 498.38Q486.63 497.03 487.65 496.23Q488.66 495.44 490.22 495.44L490.22 495.44Q492.33 495.44 493.59 496.84Q494.85 498.25 494.85 500.61L494.85 500.61L494.85 510L491.60 510L491.60 501.00Q491.60 499.68 490.91 498.96Q490.22 498.25 489.05 498.25L489.05 498.25Q487.83 498.25 487.14 498.98Q486.45 499.70 486.45 501.06L486.45 501.06L486.45 510ZM511.33 510L506.91 510Q504.78 510 503.50 508.73Q502.21 507.45 502.21 505.37L502.21 505.37L502.21 493.96L497.50 493.96L497.50 491.02L505.46 491.02L505.46 505.29Q505.46 506.10 505.91 506.58Q506.37 507.06 507.15 507.06L507.15 507.06L511.33 507.06L511.33 510ZM526.91 510L514.38 510L514.38 507.06L519.26 507.06L519.26 498.64L514.90 498.64L514.90 495.70L522.51 495.70L522.51 507.06L526.91 507.06L526.91 510ZM520.67 493.31L520.67 493.31Q519.68 493.31 519.11 492.80Q518.54 492.29 518.54 491.44L518.54 491.44Q518.54 490.58 519.11 490.07Q519.68 489.56 520.67 489.56L520.67 489.56Q521.66 489.56 522.23 490.07Q522.80 490.58 522.80 491.44L522.80 491.44Q522.80 492.29 522.23 492.80Q521.66 493.31 520.67 493.31ZM533.25 510L530.00 510L530.00 495.70L533.17 495.70L533.17 498.38Q533.43 497.03 534.45 496.23Q535.46 495.44 537.02 495.44L537.02 495.44Q539.13 495.44 540.39 496.84Q541.65 498.25 541.65 500.61L541.65 500.61L541.65 510L538.40 510L538.40 501.00Q538.40 499.68 537.71 498.96Q537.02 498.25 535.85 498.25L535.85 498.25Q534.63 498.25 533.94 498.98Q533.25 499.70 533.25 501.06L533.25 501.06L533.25 510ZM551.43 510.26L551.43 510.26Q549.61 510.26 548.25 509.56Q546.90 508.86 546.16 507.57Q545.42 506.28 545.42 504.54L545.42 504.54L545.42 501.16Q545.42 499.42 546.16 498.13Q546.90 496.84 548.25 496.14Q549.61 495.44 551.43 495.44L551.43 495.44Q553.22 495.44 554.56 496.14Q555.90 496.84 556.64 498.11Q557.38 499.37 557.38 501.06L557.38 501.06L557.38 503.66L548.54 503.66L548.54 504.64Q548.54 506.10 549.29 506.84Q550.05 507.58 551.43 507.58L551.43 507.58Q552.44 507.58 553.16 507.23Q553.87 506.88 554.00 506.20L554.00 506.20L557.22 506.20Q556.89 508.05 555.30 509.15Q553.71 510.26 551.43 510.26ZM548.54 501.06L548.54 501.06L548.54 501.55L554.26 501.52L554.26 501.03Q554.26 499.55 553.53 498.74Q552.80 497.94 551.43 497.94L551.43 497.94Q550.00 497.94 549.27 498.75Q548.54 499.57 548.54 501.06ZM571.16 502.93L562.84 502.93L562.84 499.91L571.16 499.91L571.16 502.93ZM582.83 510.26L582.83 510.26Q580.99 510.26 579.62 509.57Q578.26 508.88 577.50 507.62Q576.75 506.36 576.75 504.64L576.75 504.64L576.75 501.06Q576.75 499.34 577.50 498.08Q578.26 496.82 579.62 496.13Q580.99 495.44 582.83 495.44L582.83 495.44Q585.51 495.44 587.14 496.83Q588.76 498.22 588.84 500.61L588.84 500.61L585.64 500.61Q585.56 499.50 584.80 498.88Q584.03 498.27 582.83 498.27L582.83 498.27Q581.51 498.27 580.75 498.99Q580.00 499.70 580.00 501.03L580.00 501.03L580.00 504.64Q580.00 505.97 580.75 506.70Q581.51 507.43 582.83 507.43L582.83 507.43Q584.06 507.43 584.81 506.81Q585.56 506.20 585.64 505.09L585.64 505.09L588.84 505.09Q588.76 507.48 587.14 508.87Q585.51 510.26 582.83 510.26ZM598.20 510.23L598.20 510.23Q595.44 510.23 593.83 508.69Q592.22 507.14 592.22 504.51L592.22 504.51L592.22 501.19Q592.22 498.53 593.83 497Q595.44 495.47 598.20 495.47L598.20 495.47Q600.96 495.47 602.57 497Q604.18 498.53 604.18 501.19L604.18 501.19L604.18 504.51Q604.18 507.14 602.57 508.69Q600.96 510.23 598.20 510.23ZM598.20 507.40L598.20 507.40Q599.50 507.40 600.22 506.69Q600.93 505.97 600.93 504.62L600.93 504.62L600.93 501.08Q600.93 499.73 600.22 499.01Q599.50 498.30 598.20 498.30L598.20 498.30Q596.90 498.30 596.19 499.01Q595.47 499.73 595.47 501.08L595.47 501.08L595.47 504.62Q595.47 505.97 596.19 506.69Q596.90 507.40 598.20 507.40ZM611.25 510L608.00 510L608.00 495.70L611.17 495.70L611.17 498.38Q611.43 497.03 612.45 496.23Q613.46 495.44 615.02 495.44L615.02 495.44Q617.13 495.44 618.39 496.84Q619.65 498.25 619.65 500.61L619.65 500.61L619.65 510L616.40 510L616.40 501.00Q616.40 499.68 615.71 498.96Q615.02 498.25 613.85 498.25L613.85 498.25Q612.63 498.25 611.94 498.98Q611.25 499.70 611.25 501.06L611.25 501.06L611.25 510ZM635.30 510L630.83 510Q628.83 510 627.65 508.84Q626.46 507.69 626.46 505.71L626.46 505.71L626.46 498.64L622.51 498.64L622.51 495.70L626.46 495.70L626.46 491.67L629.74 491.67L629.74 495.70L635.43 495.70L635.43 498.64L629.74 498.64L629.74 505.63Q629.74 506.26 630.09 506.66Q630.44 507.06 631.06 507.06L631.06 507.06L635.30 507.06L635.30 510ZM645.03 510.26L645.03 510.26Q643.21 510.26 641.85 509.56Q640.50 508.86 639.76 507.57Q639.02 506.28 639.02 504.54L639.02 504.54L639.02 501.16Q639.02 499.42 639.76 498.13Q640.50 496.84 641.85 496.14Q643.21 495.44 645.03 495.44L645.03 495.44Q646.82 495.44 648.16 496.14Q649.50 496.84 650.24 498.11Q650.98 499.37 650.98 501.06L650.98 501.06L650.98 503.66L642.14 503.66L642.14 504.64Q642.14 506.10 642.89 506.84Q643.65 507.58 645.03 507.58L645.03 507.58Q646.04 507.58 646.76 507.23Q647.47 506.88 647.60 506.20L647.60 506.20L650.82 506.20Q650.49 508.05 648.90 509.15Q647.31 510.26 645.03 510.26ZM642.14 501.06L642.14 501.06L642.14 501.55L647.86 501.52L647.86 501.03Q647.86 499.55 647.13 498.74Q646.40 497.94 645.03 497.94L645.03 497.94Q643.60 497.94 642.87 498.75Q642.14 499.57 642.14 501.06ZM657.43 510L653.74 510L658.73 502.62L654.07 495.70L657.74 495.70L659.95 499.21Q660.16 499.52 660.34 499.91Q660.52 500.30 660.60 500.54L660.60 500.54Q660.70 500.30 660.87 499.91Q661.04 499.52 661.25 499.21L661.25 499.21L663.46 495.70L667.15 495.70L662.50 502.62L667.46 510L663.77 510L661.30 506.07Q661.09 505.76 660.90 505.36Q660.70 504.96 660.60 504.72L660.60 504.72Q660.50 504.96 660.31 505.36Q660.13 505.76 659.92 506.07L659.92 506.07L657.43 510ZM682.10 510L677.63 510Q675.63 510 674.45 508.84Q673.26 507.69 673.26 505.71L673.26 505.71L673.26 498.64L669.31 498.64L669.31 495.70L673.26 495.70L673.26 491.67L676.54 491.67L676.54 495.70L682.23 495.70L682.23 498.64L676.54 498.64L676.54 505.63Q676.54 506.26 676.89 506.66Q677.24 507.06 677.86 507.06L677.86 507.06L682.10 507.06L682.10 510Z"/>
  </g>

  <path fill="#6b6275" d="M823.65 577.45L827.06 577.45L827.06 592L823.65 592L823.65 577.45ZM832.37 592.20L832.37 592.20Q830.80 592.20 829.79 591.39Q828.78 590.59 828.78 588.97L828.78 588.97Q828.78 587.76 829.33 587.05Q829.89 586.34 830.81 585.99Q831.73 585.65 832.84 585.55L832.84 585.55Q834.22 585.44 834.83 585.27Q835.43 585.10 835.43 584.59L835.43 584.59L835.43 584.55Q835.43 583.98 835.03 583.67Q834.63 583.37 833.94 583.37L833.94 583.37Q833.23 583.37 832.77 583.67Q832.31 583.97 832.17 584.49L832.17 584.49L829.09 584.09Q829.41 582.69 830.67 581.82Q831.92 580.95 833.97 580.95L833.97 580.95Q835.33 580.95 836.43 581.37Q837.53 581.79 838.17 582.60Q838.82 583.42 838.82 584.59L838.82 584.59L838.82 592L835.62 592L835.62 590.47L835.53 590.47Q834.63 592.20 832.37 592.20ZM833.40 589.94L833.40 589.94Q834.26 589.94 834.86 589.43Q835.46 588.92 835.46 588.11L835.46 588.11L835.46 587.07Q835.16 587.22 834.61 587.33Q834.05 587.44 833.57 587.52L833.57 587.52Q832.00 587.75 832.00 588.82L832.00 588.82Q832.00 589.36 832.39 589.65Q832.79 589.94 833.40 589.94ZM846.15 592.21L846.15 592.21Q844.44 592.21 843.21 591.50Q841.98 590.79 841.32 589.52Q840.66 588.26 840.66 586.58L840.66 586.58Q840.66 584.90 841.32 583.63Q841.98 582.36 843.21 581.65Q844.44 580.95 846.15 580.95L846.15 580.95Q848.24 580.95 849.58 581.99Q850.92 583.04 851.18 584.82L851.18 584.82L848.03 585.35Q847.87 584.49 847.40 584.02Q846.94 583.55 846.19 583.55L846.19 583.55Q845.21 583.55 844.67 584.35Q844.14 585.14 844.14 586.56L844.14 586.56Q844.14 587.97 844.67 588.78Q845.21 589.60 846.19 589.60L846.19 589.60Q846.94 589.60 847.41 589.11Q847.89 588.62 848.04 587.74L848.04 587.74L851.19 588.25Q850.93 590.09 849.60 591.15Q848.26 592.21 846.15 592.21ZM852.96 595.83L852.96 595.83L853.72 593.34L854.15 593.46Q855.06 593.70 855.63 593.43Q856.20 593.15 856.16 592.48L856.16 592.48L856.15 592.02L852.08 581.08L855.67 581.08L857.30 586.42Q857.52 587.13 857.66 587.83Q857.81 588.53 857.95 589.27L857.95 589.27Q858.11 588.52 858.30 587.82Q858.48 587.12 858.71 586.42L858.71 586.42L860.46 581.08L864.01 581.08L859.43 593.15Q858.93 594.48 857.95 595.32Q856.96 596.16 855.12 596.16L855.12 596.16Q853.80 596.16 852.96 595.83ZM868.76 592L865.35 592L865.35 581.08L868.48 581.08L868.64 583.25Q869.09 582.02 869.94 581.48Q870.80 580.94 871.78 580.94L871.78 580.94Q872.82 580.94 873.51 581.53Q874.20 582.13 874.60 583.46L874.60 583.46Q875.09 582.12 876.07 581.53Q877.04 580.94 878.14 580.94L878.14 580.94Q879.67 580.94 880.66 581.92Q881.64 582.91 881.64 584.64L881.64 584.64L881.64 592L878.23 592L878.23 585.41Q878.23 584.58 877.80 584.15Q877.37 583.72 876.70 583.72L876.70 583.72Q875.97 583.72 875.55 584.19Q875.13 584.67 875.13 585.45L875.13 585.45L875.13 592L871.86 592L871.86 585.36Q871.86 584.61 871.44 584.16Q871.01 583.72 870.34 583.72L870.34 583.72Q869.64 583.72 869.20 584.19Q868.76 584.66 868.76 585.52L868.76 585.52L868.76 592ZM888.96 592.21L888.96 592.21Q887.25 592.21 886.02 591.50Q884.79 590.79 884.13 589.52Q883.47 588.26 883.47 586.58L883.47 586.58Q883.47 584.90 884.13 583.63Q884.79 582.36 886.02 581.65Q887.25 580.95 888.96 580.95L888.96 580.95Q890.67 580.95 891.90 581.65Q893.12 582.36 893.78 583.63Q894.44 584.90 894.44 586.58L894.44 586.58Q894.44 588.26 893.78 589.52Q893.12 590.79 891.90 591.50Q890.67 592.21 888.96 592.21ZM888.96 589.60L888.96 589.60Q889.94 589.60 890.46 588.76Q890.97 587.93 890.97 586.56L890.97 586.56Q890.97 585.19 890.46 584.37Q889.94 583.55 888.96 583.55L888.96 583.55Q887.98 583.55 887.47 584.37Q886.95 585.19 886.95 586.56L886.95 586.56Q886.95 587.93 887.47 588.76Q887.98 589.60 888.96 589.60ZM899.68 592L896.28 592L896.28 581.08L899.59 581.08L899.59 583.07L899.70 583.07Q900.00 582 900.67 581.47Q901.35 580.95 902.25 580.95L902.25 580.95Q902.75 580.95 903.22 581.06L903.22 581.06L903.22 584.03Q902.97 583.94 902.58 583.90Q902.18 583.86 901.87 583.86L901.87 583.86Q900.92 583.86 900.30 584.46Q899.68 585.07 899.68 586.04L899.68 586.04L899.68 592ZM908.08 592L904.67 592L904.67 581.08L907.98 581.08L907.98 583.07L908.10 583.07Q908.39 582 909.07 581.47Q909.75 580.95 910.65 580.95L910.65 580.95Q911.15 580.95 911.62 581.06L911.62 581.06L911.62 584.03Q911.37 583.94 910.98 583.90Q910.58 583.86 910.27 583.86L910.27 583.86Q909.32 583.86 908.70 584.46Q908.08 585.07 908.08 586.04L908.08 586.04L908.08 592ZM918.14 592.21L918.14 592.21Q916.43 592.21 915.20 591.50Q913.97 590.79 913.31 589.52Q912.65 588.26 912.65 586.58L912.65 586.58Q912.65 584.90 913.31 583.63Q913.97 582.36 915.20 581.65Q916.43 580.95 918.14 580.95L918.14 580.95Q919.85 580.95 921.08 581.65Q922.30 582.36 922.96 583.63Q923.62 584.90 923.62 586.58L923.62 586.58Q923.62 588.26 922.96 589.52Q922.30 590.79 921.08 591.50Q919.85 592.21 918.14 592.21ZM918.14 589.60L918.14 589.60Q919.12 589.60 919.63 588.76Q920.15 587.93 920.15 586.56L920.15 586.56Q920.15 585.19 919.63 584.37Q919.12 583.55 918.14 583.55L918.14 583.55Q917.16 583.55 916.65 584.37Q916.13 585.19 916.13 586.56L916.13 586.56Q916.13 587.93 916.65 588.76Q917.16 589.60 918.14 589.60ZM931.14 592L927.66 592L924.48 581.08L928.04 581.08L928.84 584.82Q929.03 585.75 929.24 586.79Q929.46 587.82 929.66 589.00L929.66 589.00Q929.88 587.83 930.12 586.79Q930.37 585.75 930.58 584.82L930.58 584.82L931.45 581.08L934.48 581.08L935.32 584.82Q935.52 585.76 935.77 586.79Q936.01 587.83 936.24 589.02L936.24 589.02Q936.42 587.84 936.63 586.80Q936.83 585.76 937.03 584.82L937.03 584.82L937.82 581.08L941.44 581.08L938.23 592L934.75 592L933.62 588.08Q933.45 587.49 933.28 586.67Q933.11 585.86 932.95 585.07L932.95 585.07Q932.78 585.86 932.61 586.67Q932.45 587.49 932.27 588.08L932.27 588.08L931.14 592ZM946.47 576.77L949.38 576.77L944.69 594.19L941.78 594.19L946.47 576.77ZM954.12 592L950.71 592L950.71 581.08L954.02 581.08L954.02 583.07L954.14 583.07Q954.43 582 955.11 581.47Q955.79 580.95 956.69 580.95L956.69 580.95Q957.18 580.95 957.65 581.06L957.65 581.06L957.65 584.03Q957.41 583.94 957.01 583.90Q956.62 583.86 956.30 583.86L956.30 583.86Q955.36 583.86 954.74 584.46Q954.12 585.07 954.12 586.04L954.12 586.04L954.12 592ZM964.20 592.21L964.20 592.21Q961.63 592.21 960.16 590.71Q958.69 589.21 958.69 586.58L958.69 586.58Q958.69 584.90 959.35 583.63Q960.01 582.36 961.22 581.65Q962.43 580.95 964.07 580.95L964.07 580.95Q965.60 580.95 966.79 581.58Q967.97 582.22 968.65 583.47Q969.33 584.71 969.33 586.51L969.33 586.51L969.33 587.37L962.04 587.37Q962.09 588.55 962.69 589.14Q963.29 589.73 964.25 589.73L964.25 589.73Q964.94 589.73 965.44 589.45Q965.93 589.16 966.14 588.61L966.14 588.61L969.18 589.11Q968.77 590.53 967.47 591.37Q966.18 592.21 964.20 592.21ZM962.06 585.39L962.06 585.39L966.10 585.39Q966.00 584.46 965.49 583.94Q964.99 583.42 964.10 583.42L964.10 583.42Q963.20 583.42 962.68 583.95Q962.15 584.48 962.06 585.39ZM974.18 592.20L974.18 592.20Q972.60 592.20 971.59 591.39Q970.58 590.59 970.58 588.97L970.58 588.97Q970.58 587.76 971.14 587.05Q971.70 586.34 972.62 585.99Q973.54 585.65 974.64 585.55L974.64 585.55Q976.03 585.44 976.63 585.27Q977.23 585.10 977.23 584.59L977.23 584.59L977.23 584.55Q977.23 583.98 976.84 583.67Q976.44 583.37 975.75 583.37L975.75 583.37Q975.04 583.37 974.58 583.67Q974.12 583.97 973.98 584.49L973.98 584.49L970.89 584.09Q971.22 582.69 972.47 581.82Q973.73 580.95 975.78 580.95L975.78 580.95Q977.13 580.95 978.23 581.37Q979.33 581.79 979.98 582.60Q980.63 583.42 980.63 584.59L980.63 584.59L980.63 592L977.43 592L977.43 590.47L977.34 590.47Q976.43 592.20 974.18 592.20ZM975.21 589.94L975.21 589.94Q976.07 589.94 976.67 589.43Q977.26 588.92 977.26 588.11L977.26 588.11L977.26 587.07Q976.97 587.22 976.41 587.33Q975.86 587.44 975.38 587.52L975.38 587.52Q973.80 587.75 973.80 588.82L973.80 588.82Q973.80 589.36 974.20 589.65Q974.60 589.94 975.21 589.94ZM987.96 592.21L987.96 592.21Q986.25 592.21 985.02 591.50Q983.79 590.79 983.13 589.52Q982.47 588.26 982.47 586.58L982.47 586.58Q982.47 584.90 983.13 583.63Q983.79 582.36 985.02 581.65Q986.25 580.95 987.96 580.95L987.96 580.95Q990.04 580.95 991.39 581.99Q992.73 583.04 992.98 584.82L992.98 584.82L989.84 585.35Q989.67 584.49 989.21 584.02Q988.75 583.55 987.99 583.55L987.99 583.55Q987.02 583.55 986.48 584.35Q985.94 585.14 985.94 586.56L985.94 586.56Q985.94 587.97 986.48 588.78Q987.02 589.60 987.99 589.60L987.99 589.60Q988.75 589.60 989.22 589.11Q989.69 588.62 989.85 587.74L989.85 587.74L992.99 588.25Q992.74 590.09 991.40 591.15Q990.06 592.21 987.96 592.21ZM998.72 581.08L1000.68 581.08L1000.68 583.61L998.72 583.61L998.72 588.66Q998.72 589.51 999.59 589.51L999.59 589.51Q999.76 589.51 1000.08 589.47Q1000.40 589.42 1000.53 589.39L1000.53 589.39L1000.97 591.87Q1000.40 592.04 999.86 592.10Q999.32 592.16 998.84 592.16L998.84 592.16Q997.11 592.16 996.21 591.34Q995.31 590.53 995.31 588.96L995.31 588.96L995.31 583.61L993.86 583.61L993.86 581.08L995.31 581.08L995.31 578.48L998.72 578.48L998.72 581.08ZM1002.66 584.79L1009.37 584.79L1009.37 587.42L1002.66 587.42L1002.66 584.79ZM1015.26 592L1011.85 592L1011.85 581.08L1015.26 581.08L1015.26 592ZM1013.55 579.80L1013.55 579.80Q1012.83 579.80 1012.31 579.32Q1011.79 578.85 1011.79 578.16L1011.79 578.16Q1011.79 577.48 1012.31 577Q1012.83 576.52 1013.55 576.52L1013.55 576.52Q1014.28 576.52 1014.80 577Q1015.32 577.48 1015.32 578.16L1015.32 578.16Q1015.32 578.85 1014.80 579.32Q1014.28 579.80 1013.55 579.80ZM1022.12 592.21L1022.12 592.21Q1020.02 592.21 1018.66 591.32Q1017.31 590.44 1017.03 588.88L1017.03 588.88L1020.19 588.38Q1020.40 589.09 1020.88 589.45Q1021.37 589.81 1022.24 589.81L1022.24 589.81Q1022.96 589.81 1023.37 589.56Q1023.78 589.31 1023.78 588.90L1023.78 588.90Q1023.78 588.19 1022.44 587.93L1022.44 587.93L1020.53 587.56Q1017.30 586.94 1017.30 584.41L1017.30 584.41Q1017.30 582.78 1018.60 581.86Q1019.91 580.95 1022.11 580.95L1022.11 580.95Q1024.16 580.95 1025.40 581.76Q1026.64 582.57 1026.92 583.97L1026.92 583.97L1023.91 584.45Q1023.58 583.29 1022.16 583.29L1022.16 583.29Q1021.55 583.29 1021.12 583.54Q1020.70 583.79 1020.70 584.21L1020.70 584.21Q1020.70 584.54 1020.96 584.79Q1021.23 585.04 1021.93 585.17L1021.93 585.17L1024.02 585.56Q1027.23 586.17 1027.23 588.51L1027.23 588.51Q1027.23 589.64 1026.57 590.47Q1025.91 591.30 1024.76 591.75Q1023.61 592.21 1022.12 592.21ZM1029.21 584.79L1035.92 584.79L1035.92 587.42L1029.21 587.42L1029.21 584.79ZM1043.47 592.21L1043.47 592.21Q1041.76 592.21 1040.53 591.50Q1039.30 590.79 1038.64 589.52Q1037.98 588.26 1037.98 586.58L1037.98 586.58Q1037.98 584.90 1038.64 583.63Q1039.30 582.36 1040.53 581.65Q1041.76 580.95 1043.47 580.95L1043.47 580.95Q1045.18 580.95 1046.41 581.65Q1047.63 582.36 1048.29 583.63Q1048.95 584.90 1048.95 586.58L1048.95 586.58Q1048.95 588.26 1048.29 589.52Q1047.63 590.79 1046.41 591.50Q1045.18 592.21 1043.47 592.21ZM1043.47 589.60L1043.47 589.60Q1044.45 589.60 1044.97 588.76Q1045.48 587.93 1045.48 586.56L1045.48 586.56Q1045.48 585.19 1044.97 584.37Q1044.45 583.55 1043.47 583.55L1043.47 583.55Q1042.50 583.55 1041.98 584.37Q1041.46 585.19 1041.46 586.56L1041.46 586.56Q1041.46 587.93 1041.98 588.76Q1042.50 589.60 1043.47 589.60ZM1054.20 585.77L1054.20 585.77L1054.20 592L1050.79 592L1050.79 581.08L1053.99 581.08L1054.05 583.44Q1054.48 582.30 1055.31 581.62Q1056.14 580.95 1057.47 580.95L1057.47 580.95Q1059.18 580.95 1060.21 582.07Q1061.25 583.19 1061.25 585.05L1061.25 585.05L1061.25 592L1057.84 592L1057.84 585.71Q1057.84 584.79 1057.37 584.27Q1056.90 583.75 1056.06 583.75L1056.06 583.75Q1055.23 583.75 1054.71 584.28Q1054.20 584.81 1054.20 585.77ZM1063.49 577.45L1066.90 577.45L1066.90 592L1063.49 592L1063.49 577.45ZM1072.56 592L1069.16 592L1069.16 581.08L1072.56 581.08L1072.56 592ZM1070.86 579.80L1070.86 579.80Q1070.13 579.80 1069.62 579.32Q1069.10 578.85 1069.10 578.16L1069.10 578.16Q1069.10 577.48 1069.62 577Q1070.13 576.52 1070.86 576.52L1070.86 576.52Q1071.59 576.52 1072.11 577Q1072.62 577.48 1072.62 578.16L1072.62 578.16Q1072.62 578.85 1072.11 579.32Q1071.59 579.80 1070.86 579.80ZM1078.23 585.77L1078.23 585.77L1078.23 592L1074.82 592L1074.82 581.08L1078.02 581.08L1078.08 583.44Q1078.51 582.30 1079.34 581.62Q1080.17 580.95 1081.50 580.95L1081.50 580.95Q1083.21 580.95 1084.24 582.07Q1085.28 583.19 1085.28 585.05L1085.28 585.05L1085.28 592L1081.87 592L1081.87 585.71Q1081.87 584.79 1081.40 584.27Q1080.93 583.75 1080.09 583.75L1080.09 583.75Q1079.26 583.75 1078.75 584.28Q1078.23 584.81 1078.23 585.77ZM1092.61 592.21L1092.61 592.21Q1090.04 592.21 1088.58 590.71Q1087.11 589.21 1087.11 586.58L1087.11 586.58Q1087.11 584.90 1087.76 583.63Q1088.42 582.36 1089.63 581.65Q1090.85 580.95 1092.49 580.95L1092.49 580.95Q1094.02 580.95 1095.21 581.58Q1096.39 582.22 1097.07 583.47Q1097.75 584.71 1097.75 586.51L1097.75 586.51L1097.75 587.37L1090.46 587.37Q1090.50 588.55 1091.10 589.14Q1091.71 589.73 1092.67 589.73L1092.67 589.73Q1093.36 589.73 1093.85 589.45Q1094.35 589.16 1094.56 588.61L1094.56 588.61L1097.59 589.11Q1097.18 590.53 1095.89 591.37Q1094.60 592.21 1092.61 592.21ZM1090.47 585.39L1090.47 585.39L1094.52 585.39Q1094.42 584.46 1093.91 583.94Q1093.40 583.42 1092.52 583.42L1092.52 583.42Q1091.62 583.42 1091.09 583.95Q1090.57 584.48 1090.47 585.39ZM1099.77 584.79L1106.48 584.79L1106.48 587.42L1099.77 587.42L1099.77 584.79ZM1114.03 592.21L1114.03 592.21Q1112.32 592.21 1111.09 591.50Q1109.86 590.79 1109.20 589.52Q1108.54 588.26 1108.54 586.58L1108.54 586.58Q1108.54 584.90 1109.20 583.63Q1109.86 582.36 1111.09 581.65Q1112.32 580.95 1114.03 580.95L1114.03 580.95Q1116.12 580.95 1117.46 581.99Q1118.80 583.04 1119.06 584.82L1119.06 584.82L1115.91 585.35Q1115.75 584.49 1115.28 584.02Q1114.82 583.55 1114.07 583.55L1114.07 583.55Q1113.09 583.55 1112.55 584.35Q1112.02 585.14 1112.02 586.56L1112.02 586.56Q1112.02 587.97 1112.55 588.78Q1113.09 589.60 1114.07 589.60L1114.07 589.60Q1114.82 589.60 1115.29 589.11Q1115.77 588.62 1115.92 587.74L1115.92 587.74L1119.07 588.25Q1118.81 590.09 1117.48 591.15Q1116.14 592.21 1114.03 592.21ZM1125.93 592.21L1125.93 592.21Q1124.22 592.21 1122.99 591.50Q1121.76 590.79 1121.10 589.52Q1120.45 588.26 1120.45 586.58L1120.45 586.58Q1120.45 584.90 1121.10 583.63Q1121.76 582.36 1122.99 581.65Q1124.22 580.95 1125.93 580.95L1125.93 580.95Q1127.64 580.95 1128.87 581.65Q1130.09 582.36 1130.75 583.63Q1131.41 584.90 1131.41 586.58L1131.41 586.58Q1131.41 588.26 1130.75 589.52Q1130.09 590.79 1128.87 591.50Q1127.64 592.21 1125.93 592.21ZM1125.93 589.60L1125.93 589.60Q1126.91 589.60 1127.43 588.76Q1127.95 587.93 1127.95 586.56L1127.95 586.56Q1127.95 585.19 1127.43 584.37Q1126.91 583.55 1125.93 583.55L1125.93 583.55Q1124.96 583.55 1124.44 584.37Q1123.92 585.19 1123.92 586.56L1123.92 586.56Q1123.92 587.93 1124.44 588.76Q1124.96 589.60 1125.93 589.60ZM1136.66 585.77L1136.66 585.77L1136.66 592L1133.25 592L1133.25 581.08L1136.45 581.08L1136.51 583.44Q1136.94 582.30 1137.77 581.62Q1138.60 580.95 1139.93 580.95L1139.93 580.95Q1141.64 580.95 1142.67 582.07Q1143.71 583.19 1143.71 585.05L1143.71 585.05L1143.71 592L1140.30 592L1140.30 585.71Q1140.30 584.79 1139.83 584.27Q1139.36 583.75 1138.52 583.75L1138.52 583.75Q1137.69 583.75 1137.17 584.28Q1136.66 584.81 1136.66 585.77ZM1149.88 581.08L1151.84 581.08L1151.84 583.61L1149.88 583.61L1149.88 588.66Q1149.88 589.51 1150.75 589.51L1150.75 589.51Q1150.92 589.51 1151.24 589.47Q1151.56 589.42 1151.70 589.39L1151.70 589.39L1152.13 591.87Q1151.56 592.04 1151.02 592.10Q1150.48 592.16 1150.01 592.16L1150.01 592.16Q1148.27 592.16 1147.37 591.34Q1146.47 590.53 1146.47 588.96L1146.47 588.96L1146.47 583.61L1145.03 583.61L1145.03 581.08L1146.47 581.08L1146.47 578.48L1149.88 578.48L1149.88 581.08ZM1158.68 592.21L1158.68 592.21Q1156.11 592.21 1154.64 590.71Q1153.17 589.21 1153.17 586.58L1153.17 586.58Q1153.17 584.90 1153.83 583.63Q1154.49 582.36 1155.70 581.65Q1156.91 580.95 1158.55 580.95L1158.55 580.95Q1160.08 580.95 1161.27 581.58Q1162.46 582.22 1163.14 583.47Q1163.81 584.71 1163.81 586.51L1163.81 586.51L1163.81 587.37L1156.52 587.37Q1156.57 588.55 1157.17 589.14Q1157.77 589.73 1158.74 589.73L1158.74 589.73Q1159.42 589.73 1159.92 589.45Q1160.42 589.16 1160.62 588.61L1160.62 588.61L1163.66 589.11Q1163.25 590.53 1161.95 591.37Q1160.66 592.21 1158.68 592.21ZM1156.54 585.39L1156.54 585.39L1160.58 585.39Q1160.48 584.46 1159.98 583.94Q1159.47 583.42 1158.58 583.42L1158.58 583.42Q1157.68 583.42 1157.16 583.95Q1156.64 584.48 1156.54 585.39ZM1168.35 592L1164.80 592L1168.19 586.39L1165.01 581.08L1168.62 581.08L1169.46 582.64Q1169.73 583.16 1169.97 583.69Q1170.21 584.23 1170.45 584.75L1170.45 584.75Q1170.68 584.23 1170.93 583.69Q1171.18 583.16 1171.46 582.64L1171.46 582.64L1172.34 581.08L1175.89 581.08L1172.62 586.41L1176.04 592L1172.45 592L1171.39 590.11Q1171.11 589.59 1170.86 589.06Q1170.60 588.52 1170.37 588.00L1170.37 588.00Q1170.14 588.52 1169.90 589.06Q1169.65 589.59 1169.38 590.11L1169.38 590.11L1168.35 592ZM1181.41 581.08L1183.38 581.08L1183.38 583.61L1181.41 583.61L1181.41 588.66Q1181.41 589.51 1182.28 589.51L1182.28 589.51Q1182.46 589.51 1182.77 589.47Q1183.09 589.42 1183.23 589.39L1183.23 589.39L1183.67 591.87Q1183.09 592.04 1182.55 592.10Q1182.02 592.16 1181.54 592.16L1181.54 592.16Q1179.80 592.16 1178.90 591.34Q1178.00 590.53 1178.00 588.96L1178.00 588.96L1178.00 583.61L1176.56 583.61L1176.56 581.08L1178.00 581.08L1178.00 578.48L1181.41 578.48L1181.41 581.08Z"/>
</svg>
