<svg xmlns="http://www.w3.org/2000/svg" viewBox="0 0 1280 640" fill="none">
  <title>react-is-online-context — Reliable online / offline detection for React</title>
  <defs>
    <radialGradient id="g" cx="80%" cy="20%" r="80%">
      <stop offset="0%" stop-color="#14b8a6" stop-opacity="0.20"/>
      <stop offset="60%" stop-color="#0a0510" stop-opacity="0"/>
    </radialGradient>
    <pattern id="grid" width="40" height="40" patternUnits="userSpaceOnUse">
      <path d="M 40 0 L 0 0 0 40" fill="none" stroke="#ffffff" stroke-opacity="0.04" stroke-width="1"/>
    </pattern>
  </defs>
  <rect width="1280" height="640" fill="#0a0510"/>
  <rect width="1280" height="640" fill="url(#grid)"/>
  <rect width="1280" height="640" fill="url(#g)"/>

  <!-- Large decorative mark on right (low opacity) -->
  <g transform="translate(820, 120) scale(1.7)" opacity="0.10">
    <rect x="0" y="0" width="256" height="256" rx="56" fill="#14b8a6"/>
    
			<g fill="none" stroke="#ffffff" stroke-width="18" stroke-linecap="round">
				<path d="M104 156 Q128 132 152 156"/>
				<path d="M84 132 Q128 88 172 132"/>
				<path d="M64 108 Q128 44 192 108"/>
			</g>
			<circle cx="128" cy="186" r="11" fill="#ffffff"/>
  </g>

  <!-- Small primary mark, top-left -->
  <g transform="translate(96, 96) scale(0.47)">
    <rect x="0" y="0" width="256" height="256" rx="56" fill="#14b8a6"/>
    
			<g fill="none" stroke="#ffffff" stroke-width="18" stroke-linecap="round">
				<path d="M104 156 Q128 132 152 156"/>
				<path d="M84 132 Q128 88 172 132"/>
				<path d="M64 108 Q128 44 192 108"/>
			</g>
			<circle cx="128" cy="186" r="11" fill="#ffffff"/>
  </g>

  <!-- Wordmark, tagline, footnote (all outlined paths — no font dependency) -->
  <path fill="#fafafa" d="M120.84 380L105.17 380L105.17 329.78L120.39 329.78L120.39 338.94L120.93 338.94Q122.28 334 125.40 331.57Q128.53 329.15 132.66 329.15L132.66 329.15Q134.95 329.15 137.11 329.69L137.11 329.69L137.11 343.34Q135.98 342.94 134.16 342.74Q132.34 342.54 130.91 342.54L130.91 342.54Q126.55 342.54 123.70 345.32Q120.84 348.11 120.84 352.60L120.84 352.60L120.84 380ZM162.60 380.94L162.60 380.94Q150.79 380.94 144.03 374.05Q137.27 367.15 137.27 355.07L137.27 355.07Q137.27 347.34 140.30 341.50Q143.33 335.66 148.90 332.41Q154.47 329.15 162.02 329.15L162.02 329.15Q169.07 329.15 174.53 332.09Q179.99 335.03 183.11 340.76Q186.23 346.49 186.23 354.75L186.23 354.75L186.23 358.71L152.68 358.71Q152.90 364.14 155.66 366.86Q158.43 369.58 162.87 369.58L162.87 369.58Q166.02 369.58 168.31 368.25Q170.60 366.93 171.54 364.41L171.54 364.41L185.51 366.70Q183.63 373.22 177.67 377.08Q171.72 380.94 162.60 380.94ZM152.77 349.59L152.77 349.59L171.36 349.59Q170.91 345.32 168.58 342.92Q166.24 340.51 162.15 340.51L162.15 340.51Q158.02 340.51 155.62 342.96Q153.21 345.41 152.77 349.59ZM203.91 380.90L203.91 380.90Q196.68 380.90 192.03 377.21Q187.38 373.53 187.38 366.07L187.38 366.07Q187.38 360.50 189.94 357.22Q192.50 353.95 196.75 352.37Q200.99 350.80 206.07 350.35L206.07 350.35Q212.45 349.81 215.21 349.03Q217.97 348.24 217.97 345.90L217.97 345.90L217.97 345.72Q217.97 343.12 216.15 341.70Q214.34 340.29 211.15 340.29L211.15 340.29Q207.87 340.29 205.76 341.68Q203.64 343.07 203.01 345.46L203.01 345.46L188.82 343.61Q190.30 337.19 196.07 333.17Q201.85 329.15 211.28 329.15L211.28 329.15Q217.52 329.15 222.58 331.08Q227.63 333.01 230.62 336.76Q233.61 340.51 233.61 345.90L233.61 345.90L233.61 380L218.87 380L218.87 372.95L218.47 372.95Q214.29 380.90 203.91 380.90ZM208.68 370.52L208.68 370.52Q212.63 370.52 215.37 368.19Q218.11 365.85 218.11 362.12L218.11 362.12L218.11 357.31Q216.76 358.03 214.20 358.53Q211.64 359.02 209.44 359.38L209.44 359.38Q202.21 360.46 202.21 365.36L202.21 365.36Q202.21 367.87 204.03 369.20Q205.84 370.52 208.68 370.52ZM262.70 380.94L262.70 380.94Q254.84 380.94 249.18 377.69Q243.52 374.43 240.48 368.61Q237.45 362.79 237.45 355.07L237.45 355.07Q237.45 347.34 240.48 341.50Q243.52 335.66 249.18 332.41Q254.84 329.15 262.70 329.15L262.70 329.15Q272.31 329.15 278.49 333.96Q284.66 338.76 285.83 346.98L285.83 346.98L271.37 349.41Q270.60 345.46 268.47 343.30Q266.34 341.14 262.88 341.14L262.88 341.14Q258.39 341.14 255.91 344.80Q253.44 348.46 253.44 354.98L253.44 354.98Q253.44 361.45 255.91 365.20Q258.39 368.95 262.88 368.95L262.88 368.95Q266.34 368.95 268.52 366.70Q270.69 364.46 271.41 360.41L271.41 360.41L285.88 362.75Q284.71 371.20 278.56 376.07Q272.40 380.94 262.70 380.94ZM307.60 329.78L316.63 329.78L316.63 341.41L307.60 341.41L307.60 364.64Q307.60 368.54 311.60 368.54L311.60 368.54Q312.41 368.54 313.87 368.34Q315.33 368.14 315.96 368.01L315.96 368.01L317.98 379.42Q315.33 380.18 312.86 380.45Q310.39 380.72 308.19 380.72L308.19 380.72Q300.19 380.72 296.06 376.97Q291.92 373.22 291.92 366.03L291.92 366.03L291.92 341.41L285.28 341.41L285.28 329.78L291.92 329.78L291.92 317.83L307.60 317.83L307.60 329.78ZM321.15 346.85L352.01 346.85L352.01 358.93L321.15 358.93L321.15 346.85ZM374.50 380L358.82 380L358.82 329.78L374.50 329.78L374.50 380ZM366.64 323.89L366.64 323.89Q363.31 323.89 360.93 321.69Q358.55 319.49 358.55 316.35L358.55 316.35Q358.55 313.20 360.93 311Q363.31 308.80 366.64 308.80L366.64 308.80Q370.01 308.80 372.39 311Q374.77 313.20 374.77 316.35L374.77 316.35Q374.77 319.49 372.39 321.69Q370.01 323.89 366.64 323.89ZM401.43 380.94L401.43 380.94Q391.78 380.94 385.55 376.88Q379.33 372.81 378.03 365.63L378.03 365.63L392.59 363.33Q393.53 366.61 395.77 368.28Q398.02 369.94 402.02 369.94L402.02 369.94Q405.30 369.94 407.18 368.79Q409.07 367.65 409.07 365.76L409.07 365.76Q409.07 362.48 402.92 361.27L402.92 361.27L394.16 359.56Q379.29 356.73 379.29 345.10L379.29 345.10Q379.29 337.59 385.29 333.37Q391.28 329.15 401.39 329.15L401.39 329.15Q410.82 329.15 416.53 332.88Q422.23 336.61 423.54 343.07L423.54 343.07L409.70 345.28Q408.17 339.93 401.66 339.93L401.66 339.93Q398.83 339.93 396.88 341.08Q394.92 342.22 394.92 344.15L394.92 344.15Q394.92 345.68 396.13 346.83Q397.35 347.97 400.58 348.60L400.58 348.60L410.19 350.40Q424.97 353.18 424.97 363.96L424.97 363.96Q424.97 369.13 421.94 372.95Q418.91 376.77 413.61 378.85Q408.31 380.94 401.43 380.94ZM429.49 346.85L460.35 346.85L460.35 358.93L429.49 358.93L429.49 346.85ZM490.48 380.94L490.48 380.94Q482.62 380.94 476.96 377.69Q471.30 374.43 468.27 368.61Q465.23 362.79 465.23 355.07L465.23 355.07Q465.23 347.34 468.27 341.50Q471.30 335.66 476.96 332.41Q482.62 329.15 490.48 329.15L490.48 329.15Q498.34 329.15 503.98 332.41Q509.62 335.66 512.65 341.50Q515.68 347.34 515.68 355.07L515.68 355.07Q515.68 362.79 512.65 368.61Q509.62 374.43 503.98 377.69Q498.34 380.94 490.48 380.94ZM490.48 368.95L490.48 368.95Q494.97 368.95 497.35 365.11Q499.73 361.27 499.73 354.98L499.73 354.98Q499.73 348.69 497.35 344.92Q494.97 341.14 490.48 341.14L490.48 341.14Q485.99 341.14 483.61 344.92Q481.22 348.69 481.22 354.98L481.22 354.98Q481.22 361.27 483.61 365.11Q485.99 368.95 490.48 368.95ZM535.20 351.34L535.20 351.34L535.20 380L519.53 380L519.53 329.78L534.26 329.78L534.53 340.60Q536.51 335.39 540.32 332.27Q544.14 329.15 550.25 329.15L550.25 329.15Q558.11 329.15 562.87 334.31Q567.64 339.48 567.64 348.02L567.64 348.02L567.64 380L551.96 380L551.96 351.07Q551.96 346.85 549.80 344.44Q547.65 342.04 543.78 342.04L543.78 342.04Q539.96 342.04 537.58 344.49Q535.20 346.94 535.20 351.34ZM573.37 313.07L589.05 313.07L589.05 380L573.37 380L573.37 313.07ZM610.50 380L594.82 380L594.82 329.78L610.50 329.78L610.50 380ZM602.64 323.89L602.64 323.89Q599.32 323.89 596.93 321.69Q594.55 319.49 594.55 316.35L594.55 316.35Q594.55 313.20 596.93 311Q599.32 308.80 602.64 308.80L602.64 308.80Q606.01 308.80 608.39 311Q610.77 313.20 610.77 316.35L610.77 316.35Q610.77 319.49 608.39 321.69Q606.01 323.89 602.64 323.89ZM631.96 351.34L631.96 351.34L631.96 380L616.28 380L616.28 329.78L631.01 329.78L631.28 340.60Q633.26 335.39 637.08 332.27Q640.90 329.15 647.00 329.15L647.00 329.15Q654.87 329.15 659.63 334.31Q664.39 339.48 664.39 348.02L664.39 348.02L664.39 380L648.71 380L648.71 351.07Q648.71 346.85 646.56 344.44Q644.40 342.04 640.54 342.04L640.54 342.04Q636.72 342.04 634.34 344.49Q631.96 346.94 631.96 351.34ZM693.53 380.94L693.53 380.94Q681.71 380.94 674.95 374.05Q668.19 367.15 668.19 355.07L668.19 355.07Q668.19 347.34 671.22 341.50Q674.25 335.66 679.82 332.41Q685.39 329.15 692.94 329.15L692.94 329.15Q699.99 329.15 705.45 332.09Q710.91 335.03 714.03 340.76Q717.15 346.49 717.15 354.75L717.15 354.75L717.15 358.71L683.60 358.71Q683.82 364.14 686.59 366.86Q689.35 369.58 693.80 369.58L693.80 369.58Q696.94 369.58 699.23 368.25Q701.52 366.93 702.47 364.41L702.47 364.41L716.44 366.70Q714.55 373.22 708.60 377.08Q702.64 380.94 693.53 380.94ZM683.69 349.59L683.69 349.59L702.29 349.59Q701.84 345.32 699.50 342.92Q697.16 340.51 693.08 340.51L693.08 340.51Q688.94 340.51 686.54 342.96Q684.14 345.41 683.69 349.59ZM721.85 346.85L752.71 346.85L752.71 358.93L721.85 358.93L721.85 346.85ZM782.84 380.94L782.84 380.94Q774.98 380.94 769.32 377.69Q763.66 374.43 760.63 368.61Q757.59 362.79 757.59 355.07L757.59 355.07Q757.59 347.34 760.63 341.50Q763.66 335.66 769.32 332.41Q774.98 329.15 782.84 329.15L782.84 329.15Q792.45 329.15 798.63 333.96Q804.81 338.76 805.97 346.98L805.97 346.98L791.51 349.41Q790.75 345.46 788.61 343.30Q786.48 341.14 783.02 341.14L783.02 341.14Q778.53 341.14 776.06 344.80Q773.59 348.46 773.59 354.98L773.59 354.98Q773.59 361.45 776.06 365.20Q778.53 368.95 783.02 368.95L783.02 368.95Q786.48 368.95 788.66 366.70Q790.84 364.46 791.55 360.41L791.55 360.41L806.02 362.75Q804.85 371.20 798.70 376.07Q792.54 380.94 782.84 380.94ZM833.00 380.94L833.00 380.94Q825.14 380.94 819.48 377.69Q813.82 374.43 810.79 368.61Q807.75 362.79 807.75 355.07L807.75 355.07Q807.75 347.34 810.79 341.50Q813.82 335.66 819.48 332.41Q825.14 329.15 833.00 329.15L833.00 329.15Q840.86 329.15 846.50 332.41Q852.14 335.66 855.17 341.50Q858.20 347.34 858.20 355.07L858.20 355.07Q858.20 362.79 855.17 368.61Q852.14 374.43 846.50 377.69Q840.86 380.94 833.00 380.94ZM833.00 368.95L833.00 368.95Q837.49 368.95 839.87 365.11Q842.25 361.27 842.25 354.98L842.25 354.98Q842.25 348.69 839.87 344.92Q837.49 341.14 833.00 341.14L833.00 341.14Q828.51 341.14 826.13 344.92Q823.75 348.69 823.75 354.98L823.75 354.98Q823.75 361.27 826.13 365.11Q828.51 368.95 833.00 368.95ZM877.72 351.34L877.72 351.34L877.72 380L862.05 380L862.05 329.78L876.78 329.78L877.05 340.60Q879.03 335.39 882.84 332.27Q886.66 329.15 892.77 329.15L892.77 329.15Q900.63 329.15 905.40 334.31Q910.16 339.48 910.16 348.02L910.16 348.02L910.16 380L894.48 380L894.48 351.07Q894.48 346.85 892.32 344.44Q890.17 342.04 886.30 342.04L886.30 342.04Q882.49 342.04 880.10 344.49Q877.72 346.94 877.72 351.34ZM933.95 329.78L942.98 329.78L942.98 341.41L933.95 341.41L933.95 364.64Q933.95 368.54 937.95 368.54L937.95 368.54Q938.75 368.54 940.21 368.34Q941.67 368.14 942.30 368.01L942.30 368.01L944.32 379.42Q941.67 380.18 939.20 380.45Q936.73 380.72 934.53 380.72L934.53 380.72Q926.54 380.72 922.40 376.97Q918.27 373.22 918.27 366.03L918.27 366.03L918.27 341.41L911.62 341.41L911.62 329.78L918.27 329.78L918.27 317.83L933.95 317.83L933.95 329.78ZM969.82 380.94L969.82 380.94Q958.01 380.94 951.25 374.05Q944.49 367.15 944.49 355.07L944.49 355.07Q944.49 347.34 947.52 341.50Q950.55 335.66 956.12 332.41Q961.69 329.15 969.24 329.15L969.24 329.15Q976.29 329.15 981.75 332.09Q987.21 335.03 990.33 340.76Q993.45 346.49 993.45 354.75L993.45 354.75L993.45 358.71L959.89 358.71Q960.12 364.14 962.88 366.86Q965.64 369.58 970.09 369.58L970.09 369.58Q973.24 369.58 975.53 368.25Q977.82 366.93 978.76 364.41L978.76 364.41L992.73 366.70Q990.85 373.22 984.89 377.08Q978.94 380.94 969.82 380.94ZM959.98 349.59L959.98 349.59L978.58 349.59Q978.13 345.32 975.80 342.92Q973.46 340.51 969.37 340.51L969.37 340.51Q965.24 340.51 962.84 342.96Q960.43 345.41 959.98 349.59ZM1009.69 380L993.39 380L1008.98 354.21L994.33 329.78L1010.95 329.78L1014.82 336.96Q1016.07 339.35 1017.17 341.79Q1018.27 344.24 1019.35 346.67L1019.35 346.67Q1020.43 344.24 1021.58 341.79Q1022.72 339.35 1024.02 336.96L1024.02 336.96L1028.07 329.78L1044.42 329.78L1029.37 354.30L1045.09 380L1028.56 380L1023.71 371.29Q1022.41 368.90 1021.24 366.46Q1020.07 364.01 1018.99 361.58L1018.99 361.58Q1017.96 364.01 1016.84 366.46Q1015.71 368.90 1014.46 371.29L1014.46 371.29L1009.69 380ZM1065.20 329.78L1074.23 329.78L1074.23 341.41L1065.20 341.41L1065.20 364.64Q1065.20 368.54 1069.20 368.54L1069.20 368.54Q1070.01 368.54 1071.47 368.34Q1072.93 368.14 1073.56 368.01L1073.56 368.01L1075.58 379.42Q1072.93 380.18 1070.46 380.45Q1067.99 380.72 1065.78 380.72L1065.78 380.72Q1057.79 380.72 1053.66 376.97Q1049.52 373.22 1049.52 366.03L1049.52 366.03L1049.52 341.41L1042.87 341.41L1042.87 329.78L1049.52 329.78L1049.52 317.83L1065.20 317.83L1065.20 329.78Z"/>
  <path fill="#5eead4" d="M107.33 440L101.81 440L101.81 416.72L111.34 416.72Q115.28 416.72 117.55 418.80Q119.83 420.89 119.83 424.45L119.83 424.45Q119.83 426.86 118.77 428.55Q117.72 430.23 115.78 431.11L115.78 431.11L120.64 440L114.59 440L110.33 431.98L107.33 431.98L107.33 440ZM107.33 421.19L107.33 427.63L110.19 427.63Q114.11 427.63 114.11 424.45L114.11 424.45Q114.11 421.19 110.17 421.19L110.17 421.19L107.33 421.19ZM130.81 440.33L130.81 440.33Q126.70 440.33 124.34 437.93Q121.99 435.53 121.99 431.33L121.99 431.33Q121.99 428.64 123.05 426.61Q124.10 424.58 126.04 423.45Q127.98 422.31 130.60 422.31L130.60 422.31Q133.06 422.31 134.95 423.34Q136.85 424.36 137.94 426.35Q139.02 428.34 139.02 431.22L139.02 431.22L139.02 432.59L127.35 432.59Q127.43 434.48 128.39 435.43Q129.35 436.38 130.90 436.38L130.90 436.38Q131.99 436.38 132.79 435.91Q133.59 435.45 133.91 434.58L133.91 434.58L138.77 435.38Q138.12 437.64 136.05 438.98Q133.98 440.33 130.81 440.33ZM127.38 429.42L127.38 429.42L133.85 429.42Q133.70 427.94 132.88 427.10Q132.07 426.27 130.65 426.27L130.65 426.27Q129.21 426.27 128.38 427.12Q127.54 427.97 127.38 429.42ZM141.56 416.72L147.02 416.72L147.02 440L141.56 440L141.56 416.72ZM155.76 440L150.31 440L150.31 422.53L155.76 422.53L155.76 440ZM153.02 420.48L153.02 420.48Q151.87 420.48 151.04 419.72Q150.21 418.95 150.21 417.86L150.21 417.86Q150.21 416.77 151.04 416Q151.87 415.23 153.02 415.23L153.02 415.23Q154.20 415.23 155.02 416Q155.85 416.77 155.85 417.86L155.85 417.86Q155.85 418.95 155.02 419.72Q154.20 420.48 153.02 420.48ZM163.94 440.31L163.94 440.31Q161.42 440.31 159.81 439.03Q158.19 437.75 158.19 435.16L158.19 435.16Q158.19 433.22 159.08 432.08Q159.97 430.94 161.45 430.39Q162.92 429.84 164.69 429.69L164.69 429.69Q166.91 429.50 167.87 429.23Q168.83 428.95 168.83 428.14L168.83 428.14L168.83 428.08Q168.83 427.17 168.20 426.68Q167.56 426.19 166.45 426.19L166.45 426.19Q165.31 426.19 164.58 426.67Q163.85 427.16 163.63 427.98L163.63 427.98L158.69 427.34Q159.20 425.11 161.21 423.71Q163.22 422.31 166.50 422.31L166.50 422.31Q168.67 422.31 170.43 422.98Q172.19 423.66 173.23 424.96Q174.27 426.27 174.27 428.14L174.27 428.14L174.27 440L169.14 440L169.14 437.55L169.00 437.55Q167.55 440.31 163.94 440.31ZM165.60 436.70L165.60 436.70Q166.97 436.70 167.92 435.89Q168.88 435.08 168.88 433.78L168.88 433.78L168.88 432.11Q168.41 432.36 167.52 432.53Q166.63 432.70 165.86 432.83L165.86 432.83Q163.35 433.20 163.35 434.91L163.35 434.91Q163.35 435.78 163.98 436.24Q164.61 436.70 165.60 436.70ZM188.04 440.25L188.04 440.25Q186.04 440.25 184.85 439.30Q183.65 438.36 183.13 437.17L183.13 437.17L182.95 437.17L182.95 440L177.56 440L177.56 416.72L183.01 416.72L183.01 425.53L183.13 425.53Q183.46 424.75 184.09 424.01Q184.71 423.27 185.70 422.79Q186.68 422.31 188.07 422.31L188.07 422.31Q189.92 422.31 191.50 423.28Q193.09 424.25 194.06 426.23Q195.04 428.22 195.04 431.28L195.04 431.28Q195.04 434.25 194.10 436.24Q193.15 438.23 191.56 439.24Q189.98 440.25 188.04 440.25ZM186.18 436L186.18 436Q187.76 436 188.60 434.70Q189.43 433.41 189.43 431.28L189.43 431.28Q189.43 429.16 188.60 427.87Q187.76 426.58 186.18 426.58L186.18 426.58Q184.62 426.58 183.75 427.84Q182.88 429.11 182.88 431.28L182.88 431.28Q182.88 433.42 183.75 434.71Q184.62 436 186.18 436ZM197.64 416.72L203.10 416.72L203.10 440L197.64 440L197.64 416.72ZM214.53 440.33L214.53 440.33Q210.42 440.33 208.06 437.93Q205.71 435.53 205.71 431.33L205.71 431.33Q205.71 428.64 206.77 426.61Q207.82 424.58 209.76 423.45Q211.70 422.31 214.32 422.31L214.32 422.31Q216.78 422.31 218.67 423.34Q220.57 424.36 221.66 426.35Q222.74 428.34 222.74 431.22L222.74 431.22L222.74 432.59L211.07 432.59Q211.15 434.48 212.11 435.43Q213.07 436.38 214.62 436.38L214.62 436.38Q215.71 436.38 216.51 435.91Q217.31 435.45 217.64 434.58L217.64 434.58L222.49 435.38Q221.84 437.64 219.77 438.98Q217.70 440.33 214.53 440.33ZM211.10 429.42L211.10 429.42L217.57 429.42Q217.42 427.94 216.60 427.10Q215.79 426.27 214.37 426.27L214.37 426.27Q212.93 426.27 212.10 427.12Q211.26 427.97 211.10 429.42ZM240.07 440.33L240.07 440.33Q237.34 440.33 235.37 439.20Q233.40 438.06 232.35 436.04Q231.29 434.02 231.29 431.33L231.29 431.33Q231.29 428.64 232.35 426.61Q233.40 424.58 235.37 423.45Q237.34 422.31 240.07 422.31L240.07 422.31Q242.81 422.31 244.77 423.45Q246.73 424.58 247.78 426.61Q248.84 428.64 248.84 431.33L248.84 431.33Q248.84 434.02 247.78 436.04Q246.73 438.06 244.77 439.20Q242.81 440.33 240.07 440.33ZM240.07 436.16L240.07 436.16Q241.64 436.16 242.46 434.82Q243.29 433.48 243.29 431.30L243.29 431.30Q243.29 429.11 242.46 427.80Q241.64 426.48 240.07 426.48L240.07 426.48Q238.51 426.48 237.68 427.80Q236.85 429.11 236.85 431.30L236.85 431.30Q236.85 433.48 237.68 434.82Q238.51 436.16 240.07 436.16ZM256.91 430.03L256.91 430.03L256.91 440L251.46 440L251.46 422.53L256.58 422.53L256.68 426.30Q257.36 424.48 258.69 423.40Q260.02 422.31 262.14 422.31L262.14 422.31Q264.88 422.31 266.53 424.11Q268.19 425.91 268.19 428.88L268.19 428.88L268.19 440L262.74 440L262.74 429.94Q262.74 428.47 261.99 427.63Q261.24 426.80 259.89 426.80L259.89 426.80Q258.57 426.80 257.74 427.65Q256.91 428.50 256.91 430.03ZM271.46 416.72L276.92 416.72L276.92 440L271.46 440L271.46 416.72ZM285.66 440L280.21 440L280.21 422.53L285.66 422.53L285.66 440ZM282.93 420.48L282.93 420.48Q281.77 420.48 280.94 419.72Q280.11 418.95 280.11 417.86L280.11 417.86Q280.11 416.77 280.94 416Q281.77 415.23 282.93 415.23L282.93 415.23Q284.10 415.23 284.93 416Q285.75 416.77 285.75 417.86L285.75 417.86Q285.75 418.95 284.93 419.72Q284.10 420.48 282.93 420.48ZM294.40 430.03L294.40 430.03L294.40 440L288.95 440L288.95 422.53L294.07 422.53L294.17 426.30Q294.86 424.48 296.18 423.40Q297.51 422.31 299.64 422.31L299.64 422.31Q302.37 422.31 304.03 424.11Q305.68 425.91 305.68 428.88L305.68 428.88L305.68 440L300.23 440L300.23 429.94Q300.23 428.47 299.48 427.63Q298.73 426.80 297.39 426.80L297.39 426.80Q296.06 426.80 295.23 427.65Q294.40 428.50 294.40 430.03ZM317.10 440.33L317.10 440.33Q312.99 440.33 310.64 437.93Q308.29 435.53 308.29 431.33L308.29 431.33Q308.29 428.64 309.34 426.61Q310.40 424.58 312.33 423.45Q314.27 422.31 316.90 422.31L316.90 422.31Q319.35 422.31 321.25 423.34Q323.15 424.36 324.23 426.35Q325.32 428.34 325.32 431.22L325.32 431.22L325.32 432.59L313.65 432.59Q313.72 434.48 314.68 435.43Q315.65 436.38 317.19 436.38L317.19 436.38Q318.29 436.38 319.08 435.91Q319.88 435.45 320.21 434.58L320.21 434.58L325.07 435.38Q324.41 437.64 322.34 438.98Q320.27 440.33 317.10 440.33ZM313.68 429.42L313.68 429.42L320.15 429.42Q319.99 427.94 319.18 427.10Q318.36 426.27 316.94 426.27L316.94 426.27Q315.50 426.27 314.67 427.12Q313.83 427.97 313.68 429.42ZM340.55 415.63L345.21 415.63L337.71 443.50L333.05 443.50L340.55 415.63ZM361.80 440.33L361.80 440.33Q359.07 440.33 357.10 439.20Q355.13 438.06 354.08 436.04Q353.02 434.02 353.02 431.33L353.02 431.33Q353.02 428.64 354.08 426.61Q355.13 424.58 357.10 423.45Q359.07 422.31 361.80 422.31L361.80 422.31Q364.54 422.31 366.50 423.45Q368.46 424.58 369.51 426.61Q370.57 428.64 370.57 431.33L370.57 431.33Q370.57 434.02 369.51 436.04Q368.46 438.06 366.50 439.20Q364.54 440.33 361.80 440.33ZM361.80 436.16L361.80 436.16Q363.37 436.16 364.19 434.82Q365.02 433.48 365.02 431.30L365.02 431.30Q365.02 429.11 364.19 427.80Q363.37 426.48 361.80 426.48L361.80 426.48Q360.24 426.48 359.41 427.80Q358.58 429.11 358.58 431.30L358.58 431.30Q358.58 433.48 359.41 434.82Q360.24 436.16 361.80 436.16ZM380.06 422.53L383.56 422.53L383.56 426.58L380.06 426.58L380.06 440L374.64 440L374.64 426.58L371.70 426.58L371.70 422.53L374.64 422.53L374.64 421.59Q374.64 418.59 376.30 417.11Q377.95 415.63 380.58 415.63L380.58 415.63Q381.73 415.63 382.75 415.80Q383.76 415.98 384.25 416.13L384.25 416.13L383.37 420.11Q383.06 420.03 382.64 419.96Q382.22 419.89 381.80 419.89L381.80 419.89Q380.83 419.89 380.44 420.34Q380.06 420.78 380.06 421.55L380.06 421.55L380.06 422.53ZM392.85 422.53L396.35 422.53L396.35 426.58L392.85 426.58L392.85 440L387.43 440L387.43 426.58L384.49 426.58L384.49 422.53L387.43 422.53L387.43 421.59Q387.43 418.59 389.08 417.11Q390.74 415.63 393.37 415.63L393.37 415.63Q394.52 415.63 395.54 415.80Q396.55 415.98 397.04 416.13L397.04 416.13L396.16 420.11Q395.85 420.03 395.43 419.96Q395.01 419.89 394.58 419.89L394.58 419.89Q393.62 419.89 393.23 420.34Q392.85 420.78 392.85 421.55L392.85 421.55L392.85 422.53ZM398.76 416.72L404.22 416.72L404.22 440L398.76 440L398.76 416.72ZM412.96 440L407.51 440L407.51 422.53L412.96 422.53L412.96 440ZM410.23 420.48L410.23 420.48Q409.07 420.48 408.24 419.72Q407.41 418.95 407.41 417.86L407.41 417.86Q407.41 416.77 408.24 416Q409.07 415.23 410.23 415.23L410.23 415.23Q411.40 415.23 412.23 416Q413.05 416.77 413.05 417.86L413.05 417.86Q413.05 418.95 412.23 419.72Q411.40 420.48 410.23 420.48ZM421.70 430.03L421.70 430.03L421.70 440L416.25 440L416.25 422.53L421.37 422.53L421.47 426.30Q422.16 424.48 423.48 423.40Q424.81 422.31 426.94 422.31L426.94 422.31Q429.67 422.31 431.33 424.11Q432.98 425.91 432.98 428.88L432.98 428.88L432.98 440L427.53 440L427.53 429.94Q427.53 428.47 426.78 427.63Q426.03 426.80 424.69 426.80L424.69 426.80Q423.36 426.80 422.53 427.65Q421.70 428.50 421.70 430.03ZM444.40 440.33L444.40 440.33Q440.29 440.33 437.94 437.93Q435.59 435.53 435.59 431.33L435.59 431.33Q435.59 428.64 436.64 426.61Q437.70 424.58 439.63 423.45Q441.57 422.31 444.20 422.31L444.20 422.31Q446.65 422.31 448.55 423.34Q450.45 424.36 451.53 426.35Q452.62 428.34 452.62 431.22L452.62 431.22L452.62 432.59L440.95 432.59Q441.02 434.48 441.98 435.43Q442.95 436.38 444.49 436.38L444.49 436.38Q445.59 436.38 446.38 435.91Q447.18 435.45 447.51 434.58L447.51 434.58L452.37 435.38Q451.71 437.64 449.64 438.98Q447.57 440.33 444.40 440.33ZM440.98 429.42L440.98 429.42L447.45 429.42Q447.29 427.94 446.48 427.10Q445.66 426.27 444.24 426.27L444.24 426.27Q442.80 426.27 441.97 427.12Q441.13 427.97 440.98 429.42ZM468.16 440.25L468.16 440.25Q466.23 440.25 464.63 439.24Q463.04 438.23 462.10 436.24Q461.16 434.25 461.16 431.28L461.16 431.28Q461.16 428.22 462.14 426.23Q463.12 424.25 464.70 423.28Q466.29 422.31 468.12 422.31L468.12 422.31Q469.51 422.31 470.49 422.79Q471.48 423.27 472.11 424.01Q472.74 424.75 473.07 425.53L473.07 425.53L473.20 425.53L473.20 416.72L478.63 416.72L478.63 440L473.26 440L473.26 437.17L473.07 437.17Q472.56 438.36 471.36 439.30Q470.16 440.25 468.16 440.25ZM470.02 436L470.02 436Q471.57 436 472.45 434.71Q473.32 433.42 473.32 431.28L473.32 431.28Q473.32 429.11 472.45 427.84Q471.59 426.58 470.02 426.58L470.02 426.58Q468.45 426.58 467.61 427.87Q466.77 429.16 466.77 431.28L466.77 431.28Q466.77 433.41 467.61 434.70Q468.45 436 470.02 436ZM490.06 440.33L490.06 440.33Q485.95 440.33 483.60 437.93Q481.25 435.53 481.25 431.33L481.25 431.33Q481.25 428.64 482.31 426.61Q483.36 424.58 485.30 423.45Q487.24 422.31 489.86 422.31L489.86 422.31Q492.31 422.31 494.21 423.34Q496.11 424.36 497.20 426.35Q498.28 428.34 498.28 431.22L498.28 431.22L498.28 432.59L486.61 432.59Q486.69 434.48 487.65 435.43Q488.61 436.38 490.16 436.38L490.16 436.38Q491.25 436.38 492.05 435.91Q492.84 435.45 493.17 434.58L493.17 434.58L498.03 435.38Q497.38 437.64 495.31 438.98Q493.24 440.33 490.06 440.33ZM486.64 429.42L486.64 429.42L493.11 429.42Q492.95 427.94 492.14 427.10Q491.33 426.27 489.91 426.27L489.91 426.27Q488.47 426.27 487.63 427.12Q486.80 427.97 486.64 429.42ZM507.10 422.53L510.24 422.53L510.24 426.58L507.10 426.58L507.10 434.66Q507.10 436.02 508.49 436.02L508.49 436.02Q508.77 436.02 509.28 435.95Q509.79 435.88 510.01 435.83L510.01 435.83L510.71 439.80Q509.79 440.06 508.93 440.16Q508.07 440.25 507.31 440.25L507.31 440.25Q504.52 440.25 503.09 438.95Q501.65 437.64 501.65 435.14L501.65 435.14L501.65 426.58L499.34 426.58L499.34 422.53L501.65 422.53L501.65 418.38L507.10 418.38L507.10 422.53ZM520.86 440.33L520.86 440.33Q516.75 440.33 514.40 437.93Q512.05 435.53 512.05 431.33L512.05 431.33Q512.05 428.64 513.10 426.61Q514.16 424.58 516.10 423.45Q518.03 422.31 520.66 422.31L520.66 422.31Q523.11 422.31 525.01 423.34Q526.91 424.36 527.99 426.35Q529.08 428.34 529.08 431.22L529.08 431.22L529.08 432.59L517.41 432.59Q517.49 434.48 518.45 435.43Q519.41 436.38 520.95 436.38L520.95 436.38Q522.05 436.38 522.85 435.91Q523.64 435.45 523.97 434.58L523.97 434.58L528.83 435.38Q528.17 437.64 526.10 438.98Q524.03 440.33 520.86 440.33ZM517.44 429.42L517.44 429.42L523.91 429.42Q523.75 427.94 522.94 427.10Q522.13 426.27 520.70 426.27L520.70 426.27Q519.27 426.27 518.43 427.12Q517.60 427.97 517.44 429.42ZM539.73 440.33L539.73 440.33Q536.99 440.33 535.03 439.20Q533.06 438.06 532.00 436.04Q530.95 434.02 530.95 431.33L530.95 431.33Q530.95 428.64 532.00 426.61Q533.06 424.58 535.03 423.45Q536.99 422.31 539.73 422.31L539.73 422.31Q543.07 422.31 545.22 423.98Q547.37 425.66 547.78 428.52L547.78 428.52L542.74 429.36Q542.48 427.98 541.74 427.23Q540.99 426.48 539.79 426.48L539.79 426.48Q538.23 426.48 537.37 427.76Q536.51 429.03 536.51 431.30L536.51 431.30Q536.51 433.55 537.37 434.85Q538.23 436.16 539.79 436.16L539.79 436.16Q540.99 436.16 541.75 435.38Q542.51 434.59 542.76 433.19L542.76 433.19L547.79 434Q547.38 436.94 545.24 438.63Q543.10 440.33 539.73 440.33ZM556.63 422.53L559.77 422.53L559.77 426.58L556.63 426.58L556.63 434.66Q556.63 436.02 558.02 436.02L558.02 436.02Q558.30 436.02 558.81 435.95Q559.31 435.88 559.53 435.83L559.53 435.83L560.24 439.80Q559.31 440.06 558.46 440.16Q557.60 440.25 556.83 440.25L556.83 440.25Q554.05 440.25 552.61 438.95Q551.17 437.64 551.17 435.14L551.17 435.14L551.17 426.58L548.86 426.58L548.86 422.53L551.17 422.53L551.17 418.38L556.63 418.38L556.63 422.53ZM567.70 440L562.24 440L562.24 422.53L567.70 422.53L567.70 440ZM564.96 420.48L564.96 420.48Q563.81 420.48 562.98 419.72Q562.15 418.95 562.15 417.86L562.15 417.86Q562.15 416.77 562.98 416Q563.81 415.23 564.96 415.23L564.96 415.23Q566.14 415.23 566.96 416Q567.79 416.77 567.79 417.86L567.79 417.86Q567.79 418.95 566.96 419.72Q566.14 420.48 564.96 420.48ZM579.10 440.33L579.10 440.33Q576.36 440.33 574.39 439.20Q572.42 438.06 571.37 436.04Q570.32 434.02 570.32 431.33L570.32 431.33Q570.32 428.64 571.37 426.61Q572.42 424.58 574.39 423.45Q576.36 422.31 579.10 422.31L579.10 422.31Q581.83 422.31 583.79 423.45Q585.75 424.58 586.81 426.61Q587.86 428.64 587.86 431.33L587.86 431.33Q587.86 434.02 586.81 436.04Q585.75 438.06 583.79 439.20Q581.83 440.33 579.10 440.33ZM579.10 436.16L579.10 436.16Q580.66 436.16 581.49 434.82Q582.32 433.48 582.32 431.30L582.32 431.30Q582.32 429.11 581.49 427.80Q580.66 426.48 579.10 426.48L579.10 426.48Q577.53 426.48 576.71 427.80Q575.88 429.11 575.88 431.30L575.88 431.30Q575.88 433.48 576.71 434.82Q577.53 436.16 579.10 436.16ZM595.93 430.03L595.93 430.03L595.93 440L590.48 440L590.48 422.53L595.60 422.53L595.70 426.30Q596.39 424.48 597.71 423.40Q599.04 422.31 601.17 422.31L601.17 422.31Q603.90 422.31 605.56 424.11Q607.21 425.91 607.21 428.88L607.21 428.88L607.21 440L601.76 440L601.76 429.94Q601.76 428.47 601.01 427.63Q600.26 426.80 598.92 426.80L598.92 426.80Q597.59 426.80 596.76 427.65Q595.93 428.50 595.93 430.03ZM624.04 422.53L627.54 422.53L627.54 426.58L624.04 426.58L624.04 440L618.62 440L618.62 426.58L615.68 426.58L615.68 422.53L618.62 422.53L618.62 421.59Q618.62 418.59 620.28 417.11Q621.93 415.63 624.56 415.63L624.56 415.63Q625.71 415.63 626.73 415.80Q627.75 415.98 628.23 416.13L628.23 416.13L627.35 420.11Q627.04 420.03 626.62 419.96Q626.20 419.89 625.78 419.89L625.78 419.89Q624.81 419.89 624.43 420.34Q624.04 420.78 624.04 421.55L624.04 421.55L624.04 422.53ZM638.07 440.33L638.07 440.33Q635.33 440.33 633.36 439.20Q631.39 438.06 630.34 436.04Q629.28 434.02 629.28 431.33L629.28 431.33Q629.28 428.64 630.34 426.61Q631.39 424.58 633.36 423.45Q635.33 422.31 638.07 422.31L638.07 422.31Q640.80 422.31 642.76 423.45Q644.72 424.58 645.78 426.61Q646.83 428.64 646.83 431.33L646.83 431.33Q646.83 434.02 645.78 436.04Q644.72 438.06 642.76 439.20Q640.80 440.33 638.07 440.33ZM638.07 436.16L638.07 436.16Q639.63 436.16 640.46 434.82Q641.28 433.48 641.28 431.30L641.28 431.30Q641.28 429.11 640.46 427.80Q639.63 426.48 638.07 426.48L638.07 426.48Q636.50 426.48 635.68 427.80Q634.85 429.11 634.85 431.30L634.85 431.30Q634.85 433.48 635.68 434.82Q636.50 436.16 638.07 436.16ZM654.90 440L649.45 440L649.45 422.53L654.75 422.53L654.75 425.72L654.93 425.72Q655.40 424 656.49 423.16Q657.57 422.31 659.01 422.31L659.01 422.31Q659.81 422.31 660.56 422.50L660.56 422.50L660.56 427.25Q660.17 427.11 659.54 427.04Q658.90 426.97 658.40 426.97L658.40 426.97Q656.89 426.97 655.89 427.94Q654.90 428.91 654.90 430.47L654.90 430.47L654.90 440ZM674.78 440L669.26 440L669.26 416.72L678.79 416.72Q682.73 416.72 685.00 418.80Q687.28 420.89 687.28 424.45L687.28 424.45Q687.28 426.86 686.22 428.55Q685.17 430.23 683.23 431.11L683.23 431.11L688.09 440L682.04 440L677.78 431.98L674.78 431.98L674.78 440ZM674.78 421.19L674.78 427.63L677.64 427.63Q681.56 427.63 681.56 424.45L681.56 424.45Q681.56 421.19 677.62 421.19L677.62 421.19L674.78 421.19ZM698.25 440.33L698.25 440.33Q694.15 440.33 691.79 437.93Q689.44 435.53 689.44 431.33L689.44 431.33Q689.44 428.64 690.50 426.61Q691.55 424.58 693.49 423.45Q695.43 422.31 698.05 422.31L698.05 422.31Q700.50 422.31 702.40 423.34Q704.30 424.36 705.39 426.35Q706.47 428.34 706.47 431.22L706.47 431.22L706.47 432.59L694.80 432.59Q694.88 434.48 695.84 435.43Q696.80 436.38 698.35 436.38L698.35 436.38Q699.44 436.38 700.24 435.91Q701.04 435.45 701.36 434.58L701.36 434.58L706.22 435.38Q705.57 437.64 703.50 438.98Q701.43 440.33 698.25 440.33ZM694.83 429.42L694.83 429.42L701.30 429.42Q701.15 427.94 700.33 427.10Q699.52 426.27 698.10 426.27L698.10 426.27Q696.66 426.27 695.83 427.12Q694.99 427.97 694.83 429.42ZM713.90 440.31L713.90 440.31Q711.39 440.31 709.77 439.03Q708.15 437.75 708.15 435.16L708.15 435.16Q708.15 433.22 709.04 432.08Q709.93 430.94 711.41 430.39Q712.89 429.84 714.65 429.69L714.65 429.69Q716.87 429.50 717.83 429.23Q718.79 428.95 718.79 428.14L718.79 428.14L718.79 428.08Q718.79 427.17 718.16 426.68Q717.53 426.19 716.42 426.19L716.42 426.19Q715.28 426.19 714.54 426.67Q713.81 427.16 713.59 427.98L713.59 427.98L708.65 427.34Q709.17 425.11 711.18 423.71Q713.18 422.31 716.47 422.31L716.47 422.31Q718.64 422.31 720.40 422.98Q722.15 423.66 723.19 424.96Q724.23 426.27 724.23 428.14L724.23 428.14L724.23 440L719.11 440L719.11 437.55L718.97 437.55Q717.51 440.31 713.90 440.31ZM715.56 436.70L715.56 436.70Q716.93 436.70 717.89 435.89Q718.84 435.08 718.84 433.78L718.84 433.78L718.84 432.11Q718.37 432.36 717.48 432.53Q716.59 432.70 715.83 432.83L715.83 432.83Q713.31 433.20 713.31 434.91L713.31 434.91Q713.31 435.78 713.94 436.24Q714.58 436.70 715.56 436.70ZM735.63 440.33L735.63 440.33Q732.90 440.33 730.93 439.20Q728.96 438.06 727.90 436.04Q726.85 434.02 726.85 431.33L726.85 431.33Q726.85 428.64 727.90 426.61Q728.96 424.58 730.93 423.45Q732.90 422.31 735.63 422.31L735.63 422.31Q738.97 422.31 741.12 423.98Q743.27 425.66 743.68 428.52L743.68 428.52L738.65 429.36Q738.38 427.98 737.64 427.23Q736.90 426.48 735.69 426.48L735.69 426.48Q734.13 426.48 733.27 427.76Q732.41 429.03 732.41 431.30L732.41 431.30Q732.41 433.55 733.27 434.85Q734.13 436.16 735.69 436.16L735.69 436.16Q736.90 436.16 737.65 435.38Q738.41 434.59 738.66 433.19L738.66 433.19L743.69 434Q743.29 436.94 741.15 438.63Q739.01 440.33 735.63 440.33ZM752.53 422.53L755.67 422.53L755.67 426.58L752.53 426.58L752.53 434.66Q752.53 436.02 753.92 436.02L753.92 436.02Q754.20 436.02 754.71 435.95Q755.22 435.88 755.44 435.83L755.44 435.83L756.14 439.80Q755.22 440.06 754.36 440.16Q753.50 440.25 752.73 440.25L752.73 440.25Q749.95 440.25 748.51 438.95Q747.08 437.64 747.08 435.14L747.08 435.14L747.08 426.58L744.76 426.58L744.76 422.53L747.08 422.53L747.08 418.38L752.53 418.38L752.53 422.53Z"/>
  <path fill="#6b6275" d="M823.65 577.45L827.06 577.45L827.06 592L823.65 592L823.65 577.45ZM832.37 592.20L832.37 592.20Q830.80 592.20 829.79 591.39Q828.78 590.59 828.78 588.97L828.78 588.97Q828.78 587.76 829.33 587.05Q829.89 586.34 830.81 585.99Q831.73 585.65 832.84 585.55L832.84 585.55Q834.22 585.44 834.83 585.27Q835.43 585.10 835.43 584.59L835.43 584.59L835.43 584.55Q835.43 583.98 835.03 583.67Q834.63 583.37 833.94 583.37L833.94 583.37Q833.23 583.37 832.77 583.67Q832.31 583.97 832.17 584.49L832.17 584.49L829.09 584.09Q829.41 582.69 830.67 581.82Q831.92 580.95 833.97 580.95L833.97 580.95Q835.33 580.95 836.43 581.37Q837.53 581.79 838.17 582.60Q838.82 583.42 838.82 584.59L838.82 584.59L838.82 592L835.62 592L835.62 590.47L835.53 590.47Q834.63 592.20 832.37 592.20ZM833.40 589.94L833.40 589.94Q834.26 589.94 834.86 589.43Q835.46 588.92 835.46 588.11L835.46 588.11L835.46 587.07Q835.16 587.22 834.61 587.33Q834.05 587.44 833.57 587.52L833.57 587.52Q832.00 587.75 832.00 588.82L832.00 588.82Q832.00 589.36 832.39 589.65Q832.79 589.94 833.40 589.94ZM846.15 592.21L846.15 592.21Q844.44 592.21 843.21 591.50Q841.98 590.79 841.32 589.52Q840.66 588.26 840.66 586.58L840.66 586.58Q840.66 584.90 841.32 583.63Q841.98 582.36 843.21 581.65Q844.44 580.95 846.15 580.95L846.15 580.95Q848.24 580.95 849.58 581.99Q850.92 583.04 851.18 584.82L851.18 584.82L848.03 585.35Q847.87 584.49 847.40 584.02Q846.94 583.55 846.19 583.55L846.19 583.55Q845.21 583.55 844.67 584.35Q844.14 585.14 844.14 586.56L844.14 586.56Q844.14 587.97 844.67 588.78Q845.21 589.60 846.19 589.60L846.19 589.60Q846.94 589.60 847.41 589.11Q847.89 588.62 848.04 587.74L848.04 587.74L851.19 588.25Q850.93 590.09 849.60 591.15Q848.26 592.21 846.15 592.21ZM852.96 595.83L852.96 595.83L853.72 593.34L854.15 593.46Q855.06 593.70 855.63 593.43Q856.20 593.15 856.16 592.48L856.16 592.48L856.15 592.02L852.08 581.08L855.67 581.08L857.30 586.42Q857.52 587.13 857.66 587.83Q857.81 588.53 857.95 589.27L857.95 589.27Q858.11 588.52 858.30 587.82Q858.48 587.12 858.71 586.42L858.71 586.42L860.46 581.08L864.01 581.08L859.43 593.15Q858.93 594.48 857.95 595.32Q856.96 596.16 855.12 596.16L855.12 596.16Q853.80 596.16 852.96 595.83ZM868.76 592L865.35 592L865.35 581.08L868.48 581.08L868.64 583.25Q869.09 582.02 869.94 581.48Q870.80 580.94 871.78 580.94L871.78 580.94Q872.82 580.94 873.51 581.53Q874.20 582.13 874.60 583.46L874.60 583.46Q875.09 582.12 876.07 581.53Q877.04 580.94 878.14 580.94L878.14 580.94Q879.67 580.94 880.66 581.92Q881.64 582.91 881.64 584.64L881.64 584.64L881.64 592L878.23 592L878.23 585.41Q878.23 584.58 877.80 584.15Q877.37 583.72 876.70 583.72L876.70 583.72Q875.97 583.72 875.55 584.19Q875.13 584.67 875.13 585.45L875.13 585.45L875.13 592L871.86 592L871.86 585.36Q871.86 584.61 871.44 584.16Q871.01 583.72 870.34 583.72L870.34 583.72Q869.64 583.72 869.20 584.19Q868.76 584.66 868.76 585.52L868.76 585.52L868.76 592ZM888.96 592.21L888.96 592.21Q887.25 592.21 886.02 591.50Q884.79 590.79 884.13 589.52Q883.47 588.26 883.47 586.58L883.47 586.58Q883.47 584.90 884.13 583.63Q884.79 582.36 886.02 581.65Q887.25 580.95 888.96 580.95L888.96 580.95Q890.67 580.95 891.90 581.65Q893.12 582.36 893.78 583.63Q894.44 584.90 894.44 586.58L894.44 586.58Q894.44 588.26 893.78 589.52Q893.12 590.79 891.90 591.50Q890.67 592.21 888.96 592.21ZM888.96 589.60L888.96 589.60Q889.94 589.60 890.46 588.76Q890.97 587.93 890.97 586.56L890.97 586.56Q890.97 585.19 890.46 584.37Q889.94 583.55 888.96 583.55L888.96 583.55Q887.98 583.55 887.47 584.37Q886.95 585.19 886.95 586.56L886.95 586.56Q886.95 587.93 887.47 588.76Q887.98 589.60 888.96 589.60ZM899.68 592L896.28 592L896.28 581.08L899.59 581.08L899.59 583.07L899.70 583.07Q900.00 582 900.67 581.47Q901.35 580.95 902.25 580.95L902.25 580.95Q902.75 580.95 903.22 581.06L903.22 581.06L903.22 584.03Q902.97 583.94 902.58 583.90Q902.18 583.86 901.87 583.86L901.87 583.86Q900.92 583.86 900.30 584.46Q899.68 585.07 899.68 586.04L899.68 586.04L899.68 592ZM908.08 592L904.67 592L904.67 581.08L907.98 581.08L907.98 583.07L908.10 583.07Q908.39 582 909.07 581.47Q909.75 580.95 910.65 580.95L910.65 580.95Q911.15 580.95 911.62 581.06L911.62 581.06L911.62 584.03Q911.37 583.94 910.98 583.90Q910.58 583.86 910.27 583.86L910.27 583.86Q909.32 583.86 908.70 584.46Q908.08 585.07 908.08 586.04L908.08 586.04L908.08 592ZM918.14 592.21L918.14 592.21Q916.43 592.21 915.20 591.50Q913.97 590.79 913.31 589.52Q912.65 588.26 912.65 586.58L912.65 586.58Q912.65 584.90 913.31 583.63Q913.97 582.36 915.20 581.65Q916.43 580.95 918.14 580.95L918.14 580.95Q919.85 580.95 921.08 581.65Q922.30 582.36 922.96 583.63Q923.62 584.90 923.62 586.58L923.62 586.58Q923.62 588.26 922.96 589.52Q922.30 590.79 921.08 591.50Q919.85 592.21 918.14 592.21ZM918.14 589.60L918.14 589.60Q919.12 589.60 919.63 588.76Q920.15 587.93 920.15 586.56L920.15 586.56Q920.15 585.19 919.63 584.37Q919.12 583.55 918.14 583.55L918.14 583.55Q917.16 583.55 916.65 584.37Q916.13 585.19 916.13 586.56L916.13 586.56Q916.13 587.93 916.65 588.76Q917.16 589.60 918.14 589.60ZM931.14 592L927.66 592L924.48 581.08L928.04 581.08L928.84 584.82Q929.03 585.75 929.24 586.79Q929.46 587.82 929.66 589.00L929.66 589.00Q929.88 587.83 930.12 586.79Q930.37 585.75 930.58 584.82L930.58 584.82L931.45 581.08L934.48 581.08L935.32 584.82Q935.52 585.76 935.77 586.79Q936.01 587.83 936.24 589.02L936.24 589.02Q936.42 587.84 936.63 586.80Q936.83 585.76 937.03 584.82L937.03 584.82L937.82 581.08L941.44 581.08L938.23 592L934.75 592L933.62 588.08Q933.45 587.49 933.28 586.67Q933.11 585.86 932.95 585.07L932.95 585.07Q932.78 585.86 932.61 586.67Q932.45 587.49 932.27 588.08L932.27 588.08L931.14 592ZM946.47 576.77L949.38 576.77L944.69 594.19L941.78 594.19L946.47 576.77ZM954.12 592L950.71 592L950.71 581.08L954.02 581.08L954.02 583.07L954.14 583.07Q954.43 582 955.11 581.47Q955.79 580.95 956.69 580.95L956.69 580.95Q957.18 580.95 957.65 581.06L957.65 581.06L957.65 584.03Q957.41 583.94 957.01 583.90Q956.62 583.86 956.30 583.86L956.30 583.86Q955.36 583.86 954.74 584.46Q954.12 585.07 954.12 586.04L954.12 586.04L954.12 592ZM964.20 592.21L964.20 592.21Q961.63 592.21 960.16 590.71Q958.69 589.21 958.69 586.58L958.69 586.58Q958.69 584.90 959.35 583.63Q960.01 582.36 961.22 581.65Q962.43 580.95 964.07 580.95L964.07 580.95Q965.60 580.95 966.79 581.58Q967.97 582.22 968.65 583.47Q969.33 584.71 969.33 586.51L969.33 586.51L969.33 587.37L962.04 587.37Q962.09 588.55 962.69 589.14Q963.29 589.73 964.25 589.73L964.25 589.73Q964.94 589.73 965.44 589.45Q965.93 589.16 966.14 588.61L966.14 588.61L969.18 589.11Q968.77 590.53 967.47 591.37Q966.18 592.21 964.20 592.21ZM962.06 585.39L962.06 585.39L966.10 585.39Q966.00 584.46 965.49 583.94Q964.99 583.42 964.10 583.42L964.10 583.42Q963.20 583.42 962.68 583.95Q962.15 584.48 962.06 585.39ZM974.18 592.20L974.18 592.20Q972.60 592.20 971.59 591.39Q970.58 590.59 970.58 588.97L970.58 588.97Q970.58 587.76 971.14 587.05Q971.70 586.34 972.62 585.99Q973.54 585.65 974.64 585.55L974.64 585.55Q976.03 585.44 976.63 585.27Q977.23 585.10 977.23 584.59L977.23 584.59L977.23 584.55Q977.23 583.98 976.84 583.67Q976.44 583.37 975.75 583.37L975.75 583.37Q975.04 583.37 974.58 583.67Q974.12 583.97 973.98 584.49L973.98 584.49L970.89 584.09Q971.22 582.69 972.47 581.82Q973.73 580.95 975.78 580.95L975.78 580.95Q977.13 580.95 978.23 581.37Q979.33 581.79 979.98 582.60Q980.63 583.42 980.63 584.59L980.63 584.59L980.63 592L977.43 592L977.43 590.47L977.34 590.47Q976.43 592.20 974.18 592.20ZM975.21 589.94L975.21 589.94Q976.07 589.94 976.67 589.43Q977.26 588.92 977.26 588.11L977.26 588.11L977.26 587.07Q976.97 587.22 976.41 587.33Q975.86 587.44 975.38 587.52L975.38 587.52Q973.80 587.75 973.80 588.82L973.80 588.82Q973.80 589.36 974.20 589.65Q974.60 589.94 975.21 589.94ZM987.96 592.21L987.96 592.21Q986.25 592.21 985.02 591.50Q983.79 590.79 983.13 589.52Q982.47 588.26 982.47 586.58L982.47 586.58Q982.47 584.90 983.13 583.63Q983.79 582.36 985.02 581.65Q986.25 580.95 987.96 580.95L987.96 580.95Q990.04 580.95 991.39 581.99Q992.73 583.04 992.98 584.82L992.98 584.82L989.84 585.35Q989.67 584.49 989.21 584.02Q988.75 583.55 987.99 583.55L987.99 583.55Q987.02 583.55 986.48 584.35Q985.94 585.14 985.94 586.56L985.94 586.56Q985.94 587.97 986.48 588.78Q987.02 589.60 987.99 589.60L987.99 589.60Q988.75 589.60 989.22 589.11Q989.69 588.62 989.85 587.74L989.85 587.74L992.99 588.25Q992.74 590.09 991.40 591.15Q990.06 592.21 987.96 592.21ZM998.72 581.08L1000.68 581.08L1000.68 583.61L998.72 583.61L998.72 588.66Q998.72 589.51 999.59 589.51L999.59 589.51Q999.76 589.51 1000.08 589.47Q1000.40 589.42 1000.53 589.39L1000.53 589.39L1000.97 591.87Q1000.40 592.04 999.86 592.10Q999.32 592.16 998.84 592.16L998.84 592.16Q997.11 592.16 996.21 591.34Q995.31 590.53 995.31 588.96L995.31 588.96L995.31 583.61L993.86 583.61L993.86 581.08L995.31 581.08L995.31 578.48L998.72 578.48L998.72 581.08ZM1002.66 584.79L1009.37 584.79L1009.37 587.42L1002.66 587.42L1002.66 584.79ZM1015.26 592L1011.85 592L1011.85 581.08L1015.26 581.08L1015.26 592ZM1013.55 579.80L1013.55 579.80Q1012.83 579.80 1012.31 579.32Q1011.79 578.85 1011.79 578.16L1011.79 578.16Q1011.79 577.48 1012.31 577Q1012.83 576.52 1013.55 576.52L1013.55 576.52Q1014.28 576.52 1014.80 577Q1015.32 577.48 1015.32 578.16L1015.32 578.16Q1015.32 578.85 1014.80 579.32Q1014.28 579.80 1013.55 579.80ZM1022.12 592.21L1022.12 592.21Q1020.02 592.21 1018.66 591.32Q1017.31 590.44 1017.03 588.88L1017.03 588.88L1020.19 588.38Q1020.40 589.09 1020.88 589.45Q1021.37 589.81 1022.24 589.81L1022.24 589.81Q1022.96 589.81 1023.37 589.56Q1023.78 589.31 1023.78 588.90L1023.78 588.90Q1023.78 588.19 1022.44 587.93L1022.44 587.93L1020.53 587.56Q1017.30 586.94 1017.30 584.41L1017.30 584.41Q1017.30 582.78 1018.60 581.86Q1019.91 580.95 1022.11 580.95L1022.11 580.95Q1024.16 580.95 1025.40 581.76Q1026.64 582.57 1026.92 583.97L1026.92 583.97L1023.91 584.45Q1023.58 583.29 1022.16 583.29L1022.16 583.29Q1021.55 583.29 1021.12 583.54Q1020.70 583.79 1020.70 584.21L1020.70 584.21Q1020.70 584.54 1020.96 584.79Q1021.23 585.04 1021.93 585.17L1021.93 585.17L1024.02 585.56Q1027.23 586.17 1027.23 588.51L1027.23 588.51Q1027.23 589.64 1026.57 590.47Q1025.91 591.30 1024.76 591.75Q1023.61 592.21 1022.12 592.21ZM1029.21 584.79L1035.92 584.79L1035.92 587.42L1029.21 587.42L1029.21 584.79ZM1043.47 592.21L1043.47 592.21Q1041.76 592.21 1040.53 591.50Q1039.30 590.79 1038.64 589.52Q1037.98 588.26 1037.98 586.58L1037.98 586.58Q1037.98 584.90 1038.64 583.63Q1039.30 582.36 1040.53 581.65Q1041.76 580.95 1043.47 580.95L1043.47 580.95Q1045.18 580.95 1046.41 581.65Q1047.63 582.36 1048.29 583.63Q1048.95 584.90 1048.95 586.58L1048.95 586.58Q1048.95 588.26 1048.29 589.52Q1047.63 590.79 1046.41 591.50Q1045.18 592.21 1043.47 592.21ZM1043.47 589.60L1043.47 589.60Q1044.45 589.60 1044.97 588.76Q1045.48 587.93 1045.48 586.56L1045.48 586.56Q1045.48 585.19 1044.97 584.37Q1044.45 583.55 1043.47 583.55L1043.47 583.55Q1042.50 583.55 1041.98 584.37Q1041.46 585.19 1041.46 586.56L1041.46 586.56Q1041.46 587.93 1041.98 588.76Q1042.50 589.60 1043.47 589.60ZM1054.20 585.77L1054.20 585.77L1054.20 592L1050.79 592L1050.79 581.08L1053.99 581.08L1054.05 583.44Q1054.48 582.30 1055.31 581.62Q1056.14 580.95 1057.47 580.95L1057.47 580.95Q1059.18 580.95 1060.21 582.07Q1061.25 583.19 1061.25 585.05L1061.25 585.05L1061.25 592L1057.84 592L1057.84 585.71Q1057.84 584.79 1057.37 584.27Q1056.90 583.75 1056.06 583.75L1056.06 583.75Q1055.23 583.75 1054.71 584.28Q1054.20 584.81 1054.20 585.77ZM1063.49 577.45L1066.90 577.45L1066.90 592L1063.49 592L1063.49 577.45ZM1072.56 592L1069.16 592L1069.16 581.08L1072.56 581.08L1072.56 592ZM1070.86 579.80L1070.86 579.80Q1070.13 579.80 1069.62 579.32Q1069.10 578.85 1069.10 578.16L1069.10 578.16Q1069.10 577.48 1069.62 577Q1070.13 576.52 1070.86 576.52L1070.86 576.52Q1071.59 576.52 1072.11 577Q1072.62 577.48 1072.62 578.16L1072.62 578.16Q1072.62 578.85 1072.11 579.32Q1071.59 579.80 1070.86 579.80ZM1078.23 585.77L1078.23 585.77L1078.23 592L1074.82 592L1074.82 581.08L1078.02 581.08L1078.08 583.44Q1078.51 582.30 1079.34 581.62Q1080.17 580.95 1081.50 580.95L1081.50 580.95Q1083.21 580.95 1084.24 582.07Q1085.28 583.19 1085.28 585.05L1085.28 585.05L1085.28 592L1081.87 592L1081.87 585.71Q1081.87 584.79 1081.40 584.27Q1080.93 583.75 1080.09 583.75L1080.09 583.75Q1079.26 583.75 1078.75 584.28Q1078.23 584.81 1078.23 585.77ZM1092.61 592.21L1092.61 592.21Q1090.04 592.21 1088.58 590.71Q1087.11 589.21 1087.11 586.58L1087.11 586.58Q1087.11 584.90 1087.76 583.63Q1088.42 582.36 1089.63 581.65Q1090.85 580.95 1092.49 580.95L1092.49 580.95Q1094.02 580.95 1095.21 581.58Q1096.39 582.22 1097.07 583.47Q1097.75 584.71 1097.75 586.51L1097.75 586.51L1097.75 587.37L1090.46 587.37Q1090.50 588.55 1091.10 589.14Q1091.71 589.73 1092.67 589.73L1092.67 589.73Q1093.36 589.73 1093.85 589.45Q1094.35 589.16 1094.56 588.61L1094.56 588.61L1097.59 589.11Q1097.18 590.53 1095.89 591.37Q1094.60 592.21 1092.61 592.21ZM1090.47 585.39L1090.47 585.39L1094.52 585.39Q1094.42 584.46 1093.91 583.94Q1093.40 583.42 1092.52 583.42L1092.52 583.42Q1091.62 583.42 1091.09 583.95Q1090.57 584.48 1090.47 585.39ZM1099.77 584.79L1106.48 584.79L1106.48 587.42L1099.77 587.42L1099.77 584.79ZM1114.03 592.21L1114.03 592.21Q1112.32 592.21 1111.09 591.50Q1109.86 590.79 1109.20 589.52Q1108.54 588.26 1108.54 586.58L1108.54 586.58Q1108.54 584.90 1109.20 583.63Q1109.86 582.36 1111.09 581.65Q1112.32 580.95 1114.03 580.95L1114.03 580.95Q1116.12 580.95 1117.46 581.99Q1118.80 583.04 1119.06 584.82L1119.06 584.82L1115.91 585.35Q1115.75 584.49 1115.28 584.02Q1114.82 583.55 1114.07 583.55L1114.07 583.55Q1113.09 583.55 1112.55 584.35Q1112.02 585.14 1112.02 586.56L1112.02 586.56Q1112.02 587.97 1112.55 588.78Q1113.09 589.60 1114.07 589.60L1114.07 589.60Q1114.82 589.60 1115.29 589.11Q1115.77 588.62 1115.92 587.74L1115.92 587.74L1119.07 588.25Q1118.81 590.09 1117.48 591.15Q1116.14 592.21 1114.03 592.21ZM1125.93 592.21L1125.93 592.21Q1124.22 592.21 1122.99 591.50Q1121.76 590.79 1121.10 589.52Q1120.45 588.26 1120.45 586.58L1120.45 586.58Q1120.45 584.90 1121.10 583.63Q1121.76 582.36 1122.99 581.65Q1124.22 580.95 1125.93 580.95L1125.93 580.95Q1127.64 580.95 1128.87 581.65Q1130.09 582.36 1130.75 583.63Q1131.41 584.90 1131.41 586.58L1131.41 586.58Q1131.41 588.26 1130.75 589.52Q1130.09 590.79 1128.87 591.50Q1127.64 592.21 1125.93 592.21ZM1125.93 589.60L1125.93 589.60Q1126.91 589.60 1127.43 588.76Q1127.95 587.93 1127.95 586.56L1127.95 586.56Q1127.95 585.19 1127.43 584.37Q1126.91 583.55 1125.93 583.55L1125.93 583.55Q1124.96 583.55 1124.44 584.37Q1123.92 585.19 1123.92 586.56L1123.92 586.56Q1123.92 587.93 1124.44 588.76Q1124.96 589.60 1125.93 589.60ZM1136.66 585.77L1136.66 585.77L1136.66 592L1133.25 592L1133.25 581.08L1136.45 581.08L1136.51 583.44Q1136.94 582.30 1137.77 581.62Q1138.60 580.95 1139.93 580.95L1139.93 580.95Q1141.64 580.95 1142.67 582.07Q1143.71 583.19 1143.71 585.05L1143.71 585.05L1143.71 592L1140.30 592L1140.30 585.71Q1140.30 584.79 1139.83 584.27Q1139.36 583.75 1138.52 583.75L1138.52 583.75Q1137.69 583.75 1137.17 584.28Q1136.66 584.81 1136.66 585.77ZM1149.88 581.08L1151.84 581.08L1151.84 583.61L1149.88 583.61L1149.88 588.66Q1149.88 589.51 1150.75 589.51L1150.75 589.51Q1150.92 589.51 1151.24 589.47Q1151.56 589.42 1151.70 589.39L1151.70 589.39L1152.13 591.87Q1151.56 592.04 1151.02 592.10Q1150.48 592.16 1150.01 592.16L1150.01 592.16Q1148.27 592.16 1147.37 591.34Q1146.47 590.53 1146.47 588.96L1146.47 588.96L1146.47 583.61L1145.03 583.61L1145.03 581.08L1146.47 581.08L1146.47 578.48L1149.88 578.48L1149.88 581.08ZM1158.68 592.21L1158.68 592.21Q1156.11 592.21 1154.64 590.71Q1153.17 589.21 1153.17 586.58L1153.17 586.58Q1153.17 584.90 1153.83 583.63Q1154.49 582.36 1155.70 581.65Q1156.91 580.95 1158.55 580.95L1158.55 580.95Q1160.08 580.95 1161.27 581.58Q1162.46 582.22 1163.14 583.47Q1163.81 584.71 1163.81 586.51L1163.81 586.51L1163.81 587.37L1156.52 587.37Q1156.57 588.55 1157.17 589.14Q1157.77 589.73 1158.74 589.73L1158.74 589.73Q1159.42 589.73 1159.92 589.45Q1160.42 589.16 1160.62 588.61L1160.62 588.61L1163.66 589.11Q1163.25 590.53 1161.95 591.37Q1160.66 592.21 1158.68 592.21ZM1156.54 585.39L1156.54 585.39L1160.58 585.39Q1160.48 584.46 1159.98 583.94Q1159.47 583.42 1158.58 583.42L1158.58 583.42Q1157.68 583.42 1157.16 583.95Q1156.64 584.48 1156.54 585.39ZM1168.35 592L1164.80 592L1168.19 586.39L1165.01 581.08L1168.62 581.08L1169.46 582.64Q1169.73 583.16 1169.97 583.69Q1170.21 584.23 1170.45 584.75L1170.45 584.75Q1170.68 584.23 1170.93 583.69Q1171.18 583.16 1171.46 582.64L1171.46 582.64L1172.34 581.08L1175.89 581.08L1172.62 586.41L1176.04 592L1172.45 592L1171.39 590.11Q1171.11 589.59 1170.86 589.06Q1170.60 588.52 1170.37 588.00L1170.37 588.00Q1170.14 588.52 1169.90 589.06Q1169.65 589.59 1169.38 590.11L1169.38 590.11L1168.35 592ZM1181.41 581.08L1183.38 581.08L1183.38 583.61L1181.41 583.61L1181.41 588.66Q1181.41 589.51 1182.28 589.51L1182.28 589.51Q1182.46 589.51 1182.77 589.47Q1183.09 589.42 1183.23 589.39L1183.23 589.39L1183.67 591.87Q1183.09 592.04 1182.55 592.10Q1182.02 592.16 1181.54 592.16L1181.54 592.16Q1179.80 592.16 1178.90 591.34Q1178.00 590.53 1178.00 588.96L1178.00 588.96L1178.00 583.61L1176.56 583.61L1176.56 581.08L1178.00 581.08L1178.00 578.48L1181.41 578.48L1181.41 581.08Z"/>
</svg>
